<svg width="176" height="175" viewBox="0 0 176 175" fill="none" xmlns="http://www.w3.org/2000/svg">
<g clip-path="url(#clip0_1719_1464)">
<path d="M93.0023 83.4745L102.467 92.5325C106.164 96.0709 112.265 94.2606 113.449 89.2728L116.478 76.5064C117.662 71.5186 113.039 67.0955 108.158 68.5436L95.6656 72.2528C90.7829 73.7013 89.3047 79.936 93.0023 83.4745Z" stroke="#CD7F74" stroke-width="0.3" stroke-miterlimit="10"/>
<path d="M90.8843 84.2096L103.583 94.9738C107.442 98.4435 113.57 96.4115 114.613 91.3168L117.482 74.879C118.524 69.7835 113.699 65.4473 108.796 67.0722L93.2276 72.747C88.3262 74.3708 87.0234 80.7391 90.8843 84.2096Z" stroke="#CD7F74" stroke-width="0.3" stroke-miterlimit="10"/>
<path d="M88.7676 84.9431L104.702 97.4132C108.726 100.814 114.879 98.5605 115.781 93.3577L118.492 73.2473C119.393 68.0438 114.364 63.7936 109.44 65.5966L90.7967 73.2366C85.8689 75.0391 84.7439 81.5426 88.7676 84.9431Z" stroke="#CD7F74" stroke-width="0.3" stroke-miterlimit="10"/>
<path d="M86.649 85.6765L105.817 99.8528C110.003 103.185 116.185 100.71 116.943 95.3992L119.494 71.6175C120.254 66.307 115.021 62.1421 110.076 64.1228L88.3571 73.7282C83.4128 75.7077 82.4644 82.3455 86.649 85.6765Z" stroke="#CD7F74" stroke-width="0.3" stroke-miterlimit="10"/>
<path d="M84.5305 86.4098L106.934 102.293C111.283 105.555 117.491 102.86 118.109 97.4411L120.501 69.9868C121.119 64.5695 115.684 60.4906 110.717 62.6481L85.9227 74.2198C80.9537 76.3757 80.1818 83.148 84.5305 86.4098Z" stroke="#CD7F74" stroke-width="0.3" stroke-miterlimit="10"/>
<path d="M82.4139 87.1441L108.052 104.732C112.563 107.926 118.799 105.009 119.275 99.4831L121.509 68.3563C121.985 62.8301 116.347 58.8393 111.357 61.1728L83.4867 74.71C78.4985 77.0443 77.903 83.951 82.4139 87.1441Z" stroke="#CD7F74" stroke-width="0.3" stroke-miterlimit="10"/>
<path d="M80.3951 87.7344L109.268 107.03C113.942 110.153 120.205 107.016 120.54 101.383L122.614 66.585C122.949 60.9518 117.107 57.047 112.097 59.5562L81.15 75.0589C76.141 77.5689 75.7201 84.6104 80.3951 87.7344Z" stroke="#CD7F74" stroke-width="0.3" stroke-miterlimit="10"/>
<path d="M80.1827 88.3862L110.063 107.025C114.9 110.042 121.15 106.661 121.312 100.937L122.316 65.5857C122.478 59.862 116.432 56.0912 111.432 58.7972L80.5472 75.5102C75.549 78.2158 75.3457 85.3694 80.1827 88.3862Z" stroke="#CD7F74" stroke-width="0.3" stroke-miterlimit="10"/>
<path d="M79.976 89.0374L110.865 107.02C115.865 109.93 122.103 106.304 122.091 100.491L122.023 64.5857C122.013 58.7736 115.762 55.1348 110.773 58.0364L79.9517 75.9585C74.9623 78.8601 74.9746 86.1261 79.976 89.0374Z" stroke="#CD7F74" stroke-width="0.3" stroke-miterlimit="10"/>
<path d="M79.7646 89.6891L111.661 107.014C116.825 109.818 123.049 105.948 122.865 100.046L121.727 63.5881C121.543 57.6857 115.088 54.1809 110.108 57.2772L79.3499 76.4097C74.3713 79.5069 74.6013 86.8849 79.7646 89.6891Z" stroke="#CD7F74" stroke-width="0.3" stroke-miterlimit="10"/>
<path d="M79.5532 90.3398L112.459 107.009C117.785 109.706 123.996 105.59 123.64 99.5993L121.431 62.5884C121.073 56.5967 114.415 53.2236 109.445 56.5167L78.75 76.8595C73.7803 80.1527 74.2274 87.6408 79.5532 90.3398Z" stroke="#CD7F74" stroke-width="0.3" stroke-miterlimit="10"/>
<path d="M79.342 90.9915L113.255 107.003C118.745 109.595 124.943 105.234 124.413 99.1532L121.134 61.589C120.603 55.5088 113.741 52.2678 108.782 55.7565L78.1489 77.3077C73.1891 80.7976 73.8519 88.3981 79.342 90.9915Z" stroke="#CD7F74" stroke-width="0.3" stroke-miterlimit="10"/>
<path d="M79.1318 91.6432L114.053 106.999C119.706 109.484 125.892 104.878 125.188 98.7076L120.837 60.5905C120.133 54.42 113.067 51.3129 108.119 54.9972L77.5482 77.7588C72.5993 81.4443 73.4797 89.1569 79.1318 91.6432Z" stroke="#CD7F74" stroke-width="0.3" stroke-miterlimit="10"/>
<path d="M79.1807 92.3198L115.068 106.77C120.878 109.11 127.004 104.24 126.095 98.006L120.479 59.4957C119.57 53.2617 112.309 50.3368 107.407 54.2327L77.1344 78.2936C72.236 82.1878 73.3711 89.9804 79.1807 92.3198Z" stroke="#CD7F74" stroke-width="0.3" stroke-miterlimit="10"/>
<path d="M79.2246 92.9987L116.079 106.543C122.046 108.736 128.11 103.604 126.998 97.3062L120.118 58.4029C119.005 52.1042 111.547 49.3639 106.694 53.4689L76.7172 78.8283C71.8664 82.9329 73.2584 90.805 79.2246 92.9987Z" stroke="#CD7F74" stroke-width="0.3" stroke-miterlimit="10"/>
<path d="M79.2687 93.6761L117.091 106.315C123.214 108.361 129.219 102.966 127.902 96.605L119.757 57.3065C118.438 50.9443 110.785 48.3882 105.98 52.7035L76.3022 79.3612C71.4983 83.6773 73.1462 91.6301 79.2687 93.6761Z" stroke="#CD7F74" stroke-width="0.3" stroke-miterlimit="10"/>
<path d="M79.3152 94.3533L118.104 106.086C124.384 107.985 130.329 102.327 128.806 95.9026L119.399 56.2118C117.876 49.787 110.027 47.4123 105.269 51.938L75.8888 79.895C71.1326 84.4214 73.036 92.453 79.3152 94.3533Z" stroke="#CD7F74" stroke-width="0.3" stroke-miterlimit="10"/>
<path d="M79.3628 95.0312L119.118 105.859C125.553 107.611 131.439 101.69 129.711 95.2022L119.041 55.1179C117.313 48.6296 109.268 46.4383 104.561 51.1739L75.4775 80.4303C70.7671 85.1675 72.9273 93.2785 79.3628 95.0312Z" stroke="#CD7F74" stroke-width="0.3" stroke-miterlimit="10"/>
<path d="M79.4045 95.7086L120.128 105.631C126.721 107.236 132.544 101.054 130.613 94.5016L118.677 54.0246C116.745 47.4716 108.504 45.4638 103.843 50.4109L75.0565 80.9659C70.3966 85.9118 72.8127 94.1036 79.4045 95.7086Z" stroke="#CD7F74" stroke-width="0.3" stroke-miterlimit="10"/>
<path d="M79.6768 96.5432L121.275 105.298C128.009 106.714 133.72 100.259 131.554 93.677L118.174 53.0172C116.008 46.4354 107.59 44.6635 103.022 49.829L74.8025 81.7354C70.2347 86.8977 72.9425 95.1249 79.6768 96.5432Z" stroke="#CD7F74" stroke-width="0.3" stroke-miterlimit="10"/>
<path d="M79.9524 97.3776L122.426 104.963C129.302 106.19 134.897 99.4609 132.498 92.849L117.676 52.0072C115.276 45.3946 106.681 43.8596 102.205 49.2446L74.5541 82.5012C70.0773 87.8842 73.0771 96.1488 79.9524 97.3776Z" stroke="#CD7F74" stroke-width="0.3" stroke-miterlimit="10"/>
<path d="M80.2233 98.2121L123.572 104.63C130.59 105.669 136.071 98.6658 133.437 92.0242L117.171 50.9977C114.537 44.3561 105.765 43.0572 101.381 48.6605L74.2981 83.2686C69.9151 88.8708 73.2057 97.1719 80.2233 98.2121Z" stroke="#CD7F74" stroke-width="0.3" stroke-miterlimit="10"/>
<path d="M80.4942 99.0462L124.718 104.296C131.878 105.146 137.243 97.8694 134.376 91.199L116.666 49.9897C113.799 43.3193 104.85 42.2564 100.557 48.0773L74.0423 84.0357C69.7511 89.8573 73.3348 98.1966 80.4942 99.0462Z" stroke="#CD7F74" stroke-width="0.3" stroke-miterlimit="10"/>
<path d="M80.769 99.8799L125.868 103.962C133.17 104.623 138.419 97.0739 135.319 90.3734L116.165 48.9814C113.064 42.2801 103.939 41.4541 99.738 47.4945L73.7907 84.8043C69.5929 90.8432 73.4686 99.2199 80.769 99.8799Z" stroke="#CD7F74" stroke-width="0.3" stroke-miterlimit="10"/>
<path d="M81.2294 100.844L127.205 103.758C134.647 104.229 139.783 96.4071 136.448 89.677L115.851 48.1025C112.516 41.3724 103.213 40.7824 99.105 47.0411L73.7263 85.701C69.6191 91.9586 73.7856 100.372 81.2294 100.844Z" stroke="#CD7F74" stroke-width="0.3" stroke-miterlimit="10"/>
<path d="M81.7737 101.89L128.594 103.357C136.128 103.599 141.074 95.533 137.497 88.8374L115.23 47.2459C111.653 40.5503 102.237 40.2474 98.2797 46.6996L73.7252 86.8243C69.7685 93.2785 74.2401 101.647 81.7737 101.89Z" stroke="#CD7F74" stroke-width="0.3" stroke-miterlimit="10"/>
<path d="M82.3223 102.937L129.987 102.956C137.612 102.97 142.368 94.6604 138.549 87.9988L114.615 46.3893C110.796 39.7289 101.265 39.7115 97.4608 46.3588L73.7297 87.9494C69.9237 94.5972 74.6977 102.923 82.3223 102.937Z" stroke="#CD7F74" stroke-width="0.3" stroke-miterlimit="10"/>
<path d="M82.8735 103.984L131.385 102.554C139.1 102.339 143.667 93.7857 139.604 87.1598L114.001 45.5325C109.938 38.9066 100.294 39.1762 96.6405 46.0183L73.7336 89.0736C70.0796 95.9157 75.1579 104.199 82.8735 103.984Z" stroke="#CD7F74" stroke-width="0.3" stroke-miterlimit="10"/>
<path d="M83.4152 105.029L132.771 102.152C140.577 101.707 144.953 92.9118 140.65 86.32L113.378 44.6757C109.073 38.0843 99.3147 38.6402 95.8139 45.6773L73.7304 90.1986C70.2284 97.235 75.609 105.475 83.4152 105.029Z" stroke="#CD7F74" stroke-width="0.3" stroke-miterlimit="10"/>
<path d="M83.9615 106.077L134.163 101.752C142.061 101.077 146.248 92.0383 141.7 85.4822L112.759 43.8201C108.211 37.264 98.3395 38.1061 94.9896 45.3367L73.7301 91.3228C70.3806 98.5554 76.065 106.75 83.9615 106.077Z" stroke="#CD7F74" stroke-width="0.3" stroke-miterlimit="10"/>
<path d="M84.5091 107.122L135.555 101.349C143.543 100.446 147.54 91.164 142.75 84.641L112.141 42.9621C107.35 36.4403 97.3656 37.5695 94.1677 44.9945L73.7304 92.4456C70.5328 99.8726 76.5207 108.026 84.5091 107.122Z" stroke="#CD7F74" stroke-width="0.3" stroke-miterlimit="10"/>
<path d="M85.1642 108.443L137.309 100.781C145.249 99.6469 148.971 90.2712 144.005 83.9051L111.219 42.2074C106.254 35.8401 96.3286 37.2585 93.3517 44.7594L73.9933 94.1191C71.0172 101.619 77.2224 109.577 85.1642 108.443Z" stroke="#CD7F74" stroke-width="0.3" stroke-miterlimit="10"/>
<path d="M85.8202 109.762L139.064 100.21C146.958 98.8451 150.402 89.3754 145.263 83.1645L110.3 41.448C105.161 35.2371 95.2922 36.9432 92.5383 44.5196L74.2568 95.7882C71.5005 103.363 77.9249 111.126 85.8202 109.762Z" stroke="#CD7F74" stroke-width="0.3" stroke-miterlimit="10"/>
<path d="M86.4737 111.08L140.817 99.638C148.665 98.043 151.83 88.4793 146.517 82.4248L109.378 40.6895C104.064 34.6342 94.2545 36.6284 91.7212 44.2787L74.5165 97.4563C71.9844 105.107 78.6272 112.676 86.4737 111.08Z" stroke="#CD7F74" stroke-width="0.3" stroke-miterlimit="10"/>
<path d="M87.1258 112.402L142.569 99.0695C150.368 97.2434 153.259 87.5862 147.769 81.6865L108.454 39.9323C102.966 34.0334 93.2142 36.3161 90.9027 44.0411L74.7749 99.1276C72.4646 106.853 79.3259 114.228 87.1258 112.402Z" stroke="#CD7F74" stroke-width="0.3" stroke-miterlimit="10"/>
<path d="M87.7809 113.721L144.322 98.5002C152.076 96.4438 154.688 86.6926 149.024 80.9493L107.533 39.1743C101.869 33.431 92.177 36.0018 90.0866 43.8027L75.0355 100.798C72.9482 108.599 80.0275 115.778 87.7809 113.721Z" stroke="#CD7F74" stroke-width="0.3" stroke-miterlimit="10"/>
<path d="M88.4331 115.04L146.074 97.9286C153.78 95.6399 156.116 85.7955 150.278 80.2086L106.61 38.4148C100.771 32.827 91.1381 35.6871 89.2694 43.5627L75.2952 102.467C73.4277 110.343 80.7266 117.329 88.4331 115.04Z" stroke="#CD7F74" stroke-width="0.3" stroke-miterlimit="10"/>
<path d="M89.2616 116.522L147.696 97.0521C155.317 94.5448 157.363 84.6564 151.38 79.2525L105.287 37.9406C99.3038 32.5368 89.7771 35.6697 88.1403 43.5816L75.7991 104.363C74.162 112.273 81.6414 119.028 89.2616 116.522Z" stroke="#CD7F74" stroke-width="0.3" stroke-miterlimit="10"/>
<path d="M90.0901 118.005L149.318 96.1774C156.853 93.4516 158.61 83.5191 152.481 78.2996L103.963 37.4695C97.8338 32.2499 88.4158 35.6573 87.0094 43.6028L76.3 106.261C74.8937 114.206 82.5547 120.731 90.0901 118.005Z" stroke="#CD7F74" stroke-width="0.3" stroke-miterlimit="10"/>
<path d="M90.9199 119.485L150.941 95.2984C158.39 92.3531 159.859 82.3775 153.584 77.341L102.641 36.9907C96.3676 31.955 87.055 35.6365 85.8806 43.6182L76.8034 108.155C75.6285 116.135 83.4712 122.43 90.9199 119.485Z" stroke="#CD7F74" stroke-width="0.3" stroke-miterlimit="10"/>
<path d="M91.7517 120.967L152.566 94.4221C159.929 91.2582 161.109 81.2386 154.69 76.3852L101.321 36.5167C94.9016 31.6653 85.6986 35.6199 84.7537 43.6364L77.3083 110.05C76.3646 118.067 84.3884 124.131 91.7517 120.967Z" stroke="#CD7F74" stroke-width="0.3" stroke-miterlimit="10"/>
<path d="M92.5809 122.449L154.188 93.5459C161.465 90.1626 162.357 80.0978 155.793 75.4315L99.9996 36.0436C93.4352 31.3752 84.3389 35.6047 83.6267 43.6563L77.813 111.946C77.0988 119.998 85.3043 125.832 92.5809 122.449Z" stroke="#CD7F74" stroke-width="0.3" stroke-miterlimit="10"/>
<path d="M93.2157 124.221L155.616 92.9608C162.808 89.3577 163.41 79.2501 156.701 74.7667L98.481 35.8595C91.7717 31.3762 82.7828 35.8794 82.3002 43.9658L78.1193 114.133C77.6375 122.218 86.0247 127.823 93.2157 124.221Z" stroke="#CD7F74" stroke-width="0.3" stroke-miterlimit="10"/>
<path d="M94.1573 125.928L156.916 91.8685C163.984 88.0644 164.295 77.9638 157.474 73.6862L96.6683 35.8599C89.8482 31.5831 81.0116 36.3367 80.7631 44.4176L78.8097 116.305C78.5632 124.385 87.0886 129.732 94.1573 125.928Z" stroke="#CD7F74" stroke-width="0.3" stroke-miterlimit="10"/>
<path d="M95.1063 127.637L158.222 90.7773C165.169 86.7731 165.188 76.6787 158.256 72.6076L94.8651 35.8611C87.9328 31.79 79.249 36.7961 79.2347 44.8713L79.5096 118.478C79.4953 126.553 88.1597 131.641 95.1063 127.637Z" stroke="#CD7F74" stroke-width="0.3" stroke-miterlimit="10"/>
<path d="M96.051 129.346L159.525 89.6858C166.35 85.4803 166.077 75.3934 159.033 71.53L93.0559 35.8645C86.0128 31.9999 77.4825 37.2572 77.7003 45.3273L80.2025 120.652C80.4223 128.722 89.2257 133.551 96.051 129.346Z" stroke="#CD7F74" stroke-width="0.3" stroke-miterlimit="10"/>
<path d="M96.9978 131.054L160.829 88.5937C167.531 84.1872 166.967 74.1074 159.813 70.4505L91.2495 35.8659C84.0946 32.209 75.7167 37.7169 76.1695 45.7802L80.8992 122.825C81.352 130.888 90.2957 135.46 96.9978 131.054Z" stroke="#CD7F74" stroke-width="0.3" stroke-miterlimit="10"/>
<path d="M97.9436 132.761L162.134 87.5023C168.715 82.8945 167.856 72.8225 160.591 69.371L89.443 35.8662C82.1772 32.4159 73.9517 38.1742 74.6378 46.2332L81.596 124.997C82.281 133.055 91.3636 137.368 97.9436 132.761Z" stroke="#CD7F74" stroke-width="0.3" stroke-miterlimit="10"/>
<path d="M98.8822 134.471L163.43 86.4115C169.888 81.6028 168.739 71.5379 161.362 68.294L87.6283 35.8692C80.2517 32.6254 72.1789 38.6362 73.098 46.6888L82.2847 127.172C83.2026 135.223 92.4235 139.279 98.8822 134.471Z" stroke="#CD7F74" stroke-width="0.3" stroke-miterlimit="10"/>
<path d="M99.9746 136.308L164.309 85.0655C170.613 80.0804 169.177 70.0738 161.726 67.0524L85.3634 36.3992C77.912 33.3778 70.0335 39.6103 71.1818 47.6156L83.2089 129.512C84.3572 137.518 93.6719 141.294 99.9746 136.308Z" stroke="#CD7F74" stroke-width="0.3" stroke-miterlimit="10"/>
<path d="M101.067 138.145L165.188 83.7199C171.337 78.5588 169.615 68.6082 162.09 65.8113L83.0988 36.9266C75.5737 34.1284 67.8892 40.5805 69.2651 48.5409L84.1345 131.851C85.5132 139.81 94.9198 143.307 101.067 138.145Z" stroke="#CD7F74" stroke-width="0.3" stroke-miterlimit="10"/>
<path d="M102.159 139.985L166.068 82.3766C172.062 77.0383 170.055 67.1469 162.456 64.572L80.8362 37.457C73.2375 34.8822 65.746 41.555 67.3512 49.4682L85.0611 134.192C86.667 142.104 96.1654 145.323 102.159 139.985Z" stroke="#CD7F74" stroke-width="0.3" stroke-miterlimit="10"/>
<path d="M103.253 141.821L166.949 81.0284C172.787 75.514 170.494 65.6798 162.822 63.3283L78.5735 37.9818C70.9011 35.6302 63.6027 42.5239 65.4371 50.3898L85.9883 136.527C87.8235 144.397 97.4137 147.336 103.253 141.821Z" stroke="#CD7F74" stroke-width="0.3" stroke-miterlimit="10"/>
<path d="M104.345 143.659L167.828 79.6836C173.512 73.9921 170.933 64.217 163.186 62.0879L76.3095 38.5121C68.5623 36.383 61.4583 43.4982 63.5211 51.3181L86.914 138.87C88.9792 146.691 98.6621 149.351 104.345 143.659Z" stroke="#CD7F74" stroke-width="0.3" stroke-miterlimit="10"/>
<path d="M105.437 145.499L168.708 78.3407C174.236 72.4719 171.37 62.7553 163.55 60.8495L74.0443 39.0435C66.2235 37.1377 59.3125 44.4737 61.6058 52.2471L87.8401 141.211C90.1314 148.985 99.9085 151.368 105.437 145.499Z" stroke="#CD7F74" stroke-width="0.3" stroke-miterlimit="10"/>
<path d="M106.839 147.107L169.193 76.4733C174.539 70.4587 171.403 60.8483 163.546 59.1761L71.5162 39.8979C63.6618 38.2253 56.98 45.744 59.4887 53.4312L89.165 143.342C91.6742 151.031 101.493 153.122 106.839 147.107Z" stroke="#CD7F74" stroke-width="0.3" stroke-miterlimit="10"/>
<path d="M108.245 148.719L169.683 74.6099C174.845 68.4475 171.437 58.9456 163.548 57.5055L68.9903 40.7567C61.1012 39.3166 54.6476 47.0192 57.3744 54.6217L90.4938 145.48C93.2201 153.08 103.081 154.881 108.245 148.719Z" stroke="#CD7F74" stroke-width="0.3" stroke-miterlimit="10"/>
<path d="M109.647 150.328L170.17 72.7438C175.149 66.4356 171.469 57.039 163.544 55.8325L66.4603 41.6121C58.5365 40.4044 52.3124 48.2917 55.2566 55.8076L91.8181 147.612C94.7623 155.128 104.667 156.637 109.647 150.328Z" stroke="#CD7F74" stroke-width="0.3" stroke-miterlimit="10"/>
<path d="M111.051 151.938L170.657 70.8785C175.453 64.4225 171.502 55.1354 163.543 54.1601L63.9338 42.4689C55.9764 41.4944 49.9794 49.5647 53.1412 56.994L93.1448 149.745C96.305 157.177 106.253 158.394 111.051 151.938Z" stroke="#CD7F74" stroke-width="0.3" stroke-miterlimit="10"/>
<path d="M112.455 153.549L171.145 69.0133C175.759 62.4102 171.536 53.2297 163.543 52.4889L61.4062 43.326C53.414 42.584 47.6461 50.8371 51.0251 58.1829L94.4708 151.88C97.8506 159.225 107.841 160.152 112.455 153.549Z" stroke="#CD7F74" stroke-width="0.3" stroke-miterlimit="10"/>
<path d="M113.425 154.864L171.198 66.8538C175.629 60.1041 171.134 51.0311 163.107 50.5215L58.4456 43.888C50.4188 43.3785 44.8805 51.8162 48.4758 59.0745L95.3646 153.719C98.961 160.978 108.994 161.613 113.425 154.864Z" stroke="#CD7F74" stroke-width="0.3" stroke-miterlimit="10"/>
<path d="M114.995 155.994L171.024 64.3448C175.249 57.483 170.506 48.5629 162.486 48.2894L55.5732 44.988C47.5527 44.7144 42.2717 53.2928 46.0652 60.4286L96.9481 155.379C100.744 162.514 110.77 162.856 114.995 155.994Z" stroke="#CD7F74" stroke-width="0.3" stroke-miterlimit="10"/>
<path d="M116.562 157.124L170.847 61.8362C174.868 54.861 169.875 46.0943 161.861 46.0568L52.697 46.0874C44.6829 46.0499 39.6579 54.7681 43.6528 61.7817L98.5309 157.039C102.525 164.052 112.543 164.099 116.562 157.124Z" stroke="#CD7F74" stroke-width="0.3" stroke-miterlimit="10"/>
<path d="M118.125 158.255L170.666 59.329C174.481 52.2415 169.239 43.6291 161.231 43.8256L49.8176 47.1889C41.8106 47.3862 37.0421 56.2463 41.236 63.1362L100.11 158.7C104.302 165.59 114.311 165.343 118.125 158.255Z" stroke="#CD7F74" stroke-width="0.3" stroke-miterlimit="10"/>
<path d="M119.692 159.386L170.487 56.8199C174.096 49.6194 168.606 41.16 160.605 41.5932L46.9399 48.2897C38.9392 48.7229 34.4276 57.7217 38.82 64.491L101.689 160.36C106.083 167.127 116.083 166.586 119.692 159.386Z" stroke="#CD7F74" stroke-width="0.3" stroke-miterlimit="10"/>
<path d="M121.263 160.518L170.314 54.3125C173.718 46.9998 167.98 38.6934 159.984 39.3618L44.0688 49.3909C36.0741 50.0582 31.8201 59.1996 36.4115 65.8451L103.275 162.021C107.866 168.665 117.859 167.83 121.263 160.518Z" stroke="#CD7F74" stroke-width="0.3" stroke-miterlimit="10"/>
<path d="M122.828 161.648L170.136 51.8043C173.334 44.3793 167.346 36.2263 159.357 37.1295L41.19 50.4916C33.2016 51.3948 29.2048 60.677 33.9945 67.1999L104.854 163.682C109.645 170.202 119.63 169.073 122.828 161.648Z" stroke="#CD7F74" stroke-width="0.3" stroke-miterlimit="10"/>
<path d="M124.617 162.187L169.247 48.7006C172.224 41.1998 166.017 33.2421 158.076 34.3765L38.125 51.8872C30.1843 53.0216 26.4626 62.3973 31.4283 68.7635L106.749 164.739C111.713 171.105 121.64 169.687 124.617 162.187Z" stroke="#CD7F74" stroke-width="0.3" stroke-miterlimit="10"/>
<path d="M126.401 162.727L168.353 45.5988C171.108 38.0232 164.684 30.2605 156.788 31.6244L35.0525 53.285C27.1584 54.6497 23.7148 64.1194 28.8539 70.3303L108.638 165.798C113.779 172.009 123.646 170.303 126.401 162.727Z" stroke="#CD7F74" stroke-width="0.3" stroke-miterlimit="10"/>
<path d="M128.195 163.266L167.47 42.4959C170.004 34.8457 163.361 27.277 155.513 28.872L31.9933 54.6813C24.1457 56.2763 20.9803 65.84 26.2934 71.8945L110.538 166.855C115.853 172.911 125.662 170.916 128.195 163.266Z" stroke="#CD7F74" stroke-width="0.3" stroke-miterlimit="10"/>
<path d="M129.98 163.806L166.577 39.3932C168.888 31.6682 162.027 24.2936 154.227 26.1197L28.9232 56.0776C21.1233 57.9037 18.2329 67.5609 23.7225 73.4606L112.43 167.914C117.918 173.814 127.67 171.532 129.98 163.806Z" stroke="#CD7F74" stroke-width="0.3" stroke-miterlimit="10"/>
<path d="M131.767 164.346L165.687 36.2915C167.777 28.4906 160.697 21.3114 152.943 23.3678L25.8548 57.4753C18.1014 59.5317 15.4891 69.2829 21.1528 75.0262L114.321 168.973C119.984 174.717 129.676 172.147 131.767 164.346Z" stroke="#CD7F74" stroke-width="0.3" stroke-miterlimit="10"/>
<path d="M133.56 164.886L164.801 33.1902C166.67 25.3147 159.371 18.3295 151.664 20.6182L22.7918 58.8741C15.0853 61.1628 12.7499 71.0072 18.5878 76.5941L116.219 170.034C122.058 175.621 131.691 172.761 133.56 164.886Z" stroke="#CD7F74" stroke-width="0.3" stroke-miterlimit="10"/>
<path d="M135.926 164.907L163.474 29.7636C165.111 21.8537 157.631 15.0991 150.011 17.6052L20.0316 60.8005C12.4106 63.3078 10.3644 73.1962 16.3475 78.6L118.779 170.548C124.762 175.952 134.289 172.817 135.926 164.907Z" stroke="#CD7F74" stroke-width="0.3" stroke-miterlimit="10"/>
<path d="M138.285 164.931L162.14 26.3402C163.546 18.3948 155.885 11.8698 148.35 14.5957L17.2636 62.7291C9.7282 65.455 7.97115 75.3874 14.1002 80.6069L121.332 171.064C127.46 176.285 136.88 172.877 138.285 164.931Z" stroke="#CD7F74" stroke-width="0.3" stroke-miterlimit="10"/>
<path d="M140.649 164.955L160.81 22.9169C161.985 14.936 154.142 8.64182 146.693 11.5871L14.5009 64.6586C7.05224 67.6038 5.58314 77.5793 11.8574 82.6158L123.889 171.582C130.162 176.618 139.474 172.936 140.649 164.955Z" stroke="#CD7F74" stroke-width="0.3" stroke-miterlimit="10"/>
<path d="M143.019 164.976L159.485 19.4915C160.43 11.4763 152.405 5.41057 145.043 8.57523L11.744 66.5858C4.38083 69.7497 3.20084 79.7692 9.62034 84.6226L126.451 172.097C132.871 176.949 142.075 172.994 143.019 164.976Z" stroke="#CD7F74" stroke-width="0.3" stroke-miterlimit="10"/>
<path d="M145.384 164.999L158.158 16.066C158.871 8.01529 150.666 2.18003 143.388 5.56365L8.98201 68.5121C1.70554 71.8954 0.813883 81.9601 7.37783 86.6263L129.009 172.609C135.574 177.279 144.67 173.05 145.384 164.999Z" stroke="#CD7F74" stroke-width="0.3" stroke-miterlimit="10"/>
<path d="M148.17 164.396L157.251 12.0145C157.733 3.92824 149.346 -1.67623 142.155 1.92561L6.64129 69.8136C-0.549706 73.4154 -1.15225 83.5241 5.55696 88.0074L131.989 172.5C138.7 176.986 147.689 172.483 148.17 164.396Z" stroke="#CD7F74" stroke-width="0.3" stroke-miterlimit="10"/>
</g>
<defs>
<clipPath id="clip0_1719_1464">
<rect width="176" height="175" fill="white"/>
</clipPath>
</defs>
</svg>
