<svg width="22" height="22" viewBox="0 0 22 22" fill="none" xmlns="http://www.w3.org/2000/svg">
<path fill-rule="evenodd" clip-rule="evenodd" d="M10.3037 6.86975C11.9047 7.05826 13.1441 7.9235 13.8267 8.68887C14.3369 9.26091 14.2828 10.1348 13.706 10.6407C13.1291 11.1467 12.2479 11.0931 11.7377 10.521C11.415 10.1592 10.7673 9.70928 9.97486 9.61597C9.2608 9.5319 8.22058 9.71128 6.96289 10.9585C5.00695 12.8981 3.66446 14.287 3.0754 15.4847C2.80566 16.0332 2.75288 16.4338 2.80951 16.7635C2.86674 17.0966 3.06707 17.5394 3.64361 18.1111C4.2602 18.7225 4.7543 19.0143 5.13501 19.1422C5.49172 19.262 5.81614 19.2617 6.16757 19.1615C6.98597 18.9281 7.9255 18.177 9.23474 16.8786C9.77929 16.3386 10.6622 16.3386 11.2067 16.8786C11.7513 17.4186 11.7513 18.2942 11.2067 18.8342C9.95452 20.0759 8.54478 21.3613 6.93813 21.8193C6.07704 22.0648 5.16999 22.0738 4.24028 21.7615C3.33458 21.4573 2.48733 20.8755 1.67162 20.0666C0.815865 19.218 0.241323 18.2817 0.0603048 17.2279C-0.121307 16.1706 0.124313 15.1762 0.56882 14.2724C1.40827 12.5656 3.15771 10.8208 4.99091 9.00295C6.76454 7.24413 8.62427 6.67202 10.3037 6.86975Z" fill="#002E25"/>
<path fill-rule="evenodd" clip-rule="evenodd" d="M15.1422 3.1889C13.9513 3.82001 12.8136 5.00536 12.1411 5.93311C11.6916 6.5532 10.8203 6.69454 10.195 6.2488C9.56968 5.80306 9.42715 4.93904 9.87664 4.31894C10.6895 3.19761 12.1254 1.65201 13.8278 0.74982C14.6901 0.292858 15.7051 -0.0435756 16.7894 0.0045913C17.9123 0.0544756 18.9836 0.512552 19.9066 1.42785C20.9024 2.41533 21.5298 3.43489 21.8175 4.47831C22.1076 5.53036 22.0262 6.51249 21.7531 7.37299C21.2327 9.01226 19.9983 10.2363 19.385 10.8445L19.3761 10.8532C18.3078 11.9126 16.2305 13.6091 15.3508 14.3069L15.3487 14.3086L15.3465 14.3103C14.7265 14.7982 13.7042 15.2521 12.4792 15.2453C11.2033 15.2382 9.81177 14.732 8.52239 13.4534C7.97784 12.9134 7.97784 12.0379 8.52239 11.4979C9.06693 10.9579 9.94982 10.9579 10.4944 11.4979C11.3027 12.2995 12.0053 12.4771 12.4948 12.4798C13.0335 12.4828 13.4471 12.2737 13.6114 12.1453C14.5012 11.4392 16.4606 9.83339 17.4041 8.89773C18.0519 8.25537 18.8011 7.46179 19.0929 6.54261C19.2271 6.11993 19.2584 5.68267 19.1275 5.20777C18.9941 4.72424 18.6667 4.1093 17.9346 3.38336C17.4753 2.92792 17.0522 2.78455 16.6646 2.76733C16.2383 2.7484 15.7266 2.87921 15.1422 3.1889Z" fill="#002E25"/>
</svg>
