<svg width="172" height="42" viewBox="0 0 172 42" fill="none" xmlns="http://www.w3.org/2000/svg">
<g clip-path="url(#clip0_1705_10275)">
<path fill-rule="evenodd" clip-rule="evenodd" d="M105.256 18.5621C103.572 18.6084 103.204 18.6922 101.582 18.9353C100.15 18.8957 100.021 18.2283 100.712 17.0241C101.113 16.3264 101.431 16.0414 102.17 15.8255C103.554 15.8352 103.892 16.5206 106.204 16.1621C106.875 16.0585 109.159 15.7752 108.582 17.1258C108.12 18.2066 106.274 18.514 105.255 18.5619L105.256 18.5621ZM77.4845 3.24458C76.9415 -1.11202 75.3856 -0.791843 74.4733 3.21365C74.0768 6.4754 73.4882 9.17907 72.9709 12.3389C72.466 17.4056 72.3304 21.9273 71.3457 26.9889C70.9375 29.0882 70.1507 34.1037 73.7553 30.823C79.0428 26.0108 71.6156 18.6074 79.4749 20.2172C82.0305 20.741 82.3088 20.3959 84.214 18.6876C85.5195 17.4786 86.9082 16.3634 88.1885 15.1385C90.2484 12.8617 91.0625 8.21444 90.5275 5.22057C89.2606 -1.87638 77.4845 3.09949 77.4845 3.24458ZM79.4331 17.6615C74.6167 15.865 76.3327 14.2151 76.7936 9.81582C77.3005 4.975 78.2551 5.37216 82.5996 4.16364C87.1403 2.90041 87.2857 6.56607 86.8823 10.0794C85.9003 14.4135 84.3896 17.759 79.4331 17.6615ZM90.183 28.4233C84.7425 24.9563 89.1923 12.3485 94.4518 11.6057C97.4842 11.352 100.381 13.3301 98.0717 16.4789C95.8429 19.2793 94.1013 19.6197 91.4281 21.4908C90.1679 22.3724 90.0167 27.2485 93.0082 25.8911C95.0773 24.7979 96.4634 23.0465 98.6921 22.0507C98.2211 24.6467 96.1111 25.4696 94.3593 27.5521C92.9765 29.1959 90.1827 28.4234 90.183 28.4234V28.4233ZM95.9185 14.625C95.6857 15.9997 93.8682 18.0954 92.2953 18.6348C90.63 19.2046 94.1317 14.3928 95.2243 14.2381C95.5863 14.1868 95.9633 14.3624 95.9185 14.625ZM152.878 9.17042C153.774 10.1022 156.268 10.8315 158.065 10.0521C159.862 9.27236 163.1 8.32836 164.239 8.32836C165.376 8.32836 166.364 7.48607 166.035 6.95052C165.706 6.41472 163.454 5.75134 161.127 6.10821C158.799 6.46509 155.838 7.68993 154.902 7.46041C153.966 7.23113 152.955 5.31891 151.765 6.00701C150.575 6.69509 152.155 8.41806 152.878 9.17042ZM156.828 18.0558C156.762 18.8065 155.882 25.1501 155.897 25.2684C156.113 26.9391 158.885 27.312 158.917 25.1465C158.971 21.451 160.31 21.3896 162.104 18.3811C162.506 17.7067 167.005 10.5147 166.378 14.9276C165.906 18.24 164.281 20.1604 163.99 24.4115C163.791 27.3146 164.004 29.9198 165.482 32.4677C166.638 34.4568 169.401 33.1559 169.933 30.668C170.472 28.1455 169.819 28.5488 171.207 25.9812C172.867 22.9069 171.42 21.2729 170.651 22.6525C170.098 23.6444 169.166 28.6556 167.599 28.0891C165.551 27.348 168.091 19.52 168.897 17.6903C169.44 16.4603 170.317 11.706 169.473 10.5857C167.9 8.49817 164.992 12.3384 163.986 13.4193C163.164 14.3024 159.701 19.7133 159.16 19.7563C157.268 19.9053 161.556 11.9276 157.96 12.6962C155.356 13.6633 152.979 18.6221 152.298 18.3619C151.424 18.0276 153.498 13.9228 152.352 12.9992C151.69 12.4643 150.247 11.6786 149.698 12.7955C149.056 14.1014 149.192 16.2566 148.688 17.8976C148.197 19.496 147.415 26.4801 148.705 27.5372C150.017 28.6139 151.569 27.5543 151.634 25.5644C151.768 21.4872 153.225 19.5861 155.674 16.537C156.04 16.0823 157.271 14.6058 156.828 18.0561V18.0558ZM142.309 28.021C143.344 27.724 143.474 25.8625 144.615 25.6835C145.637 25.5234 146.479 22.8483 146.344 21.9947C146.029 20.6897 145.326 19.8061 144.18 19.0881C142.221 17.8592 140.427 19.9638 141.878 13.7211C142.173 12.4528 143.799 9.3731 141.274 9.91848C139.322 10.3403 138.554 14.0906 138.155 15.8179C137.394 19.1233 137.398 20.5099 137.702 23.8851C137.839 25.4047 137.962 26.2668 139.345 26.8619C140.979 27.5646 141.139 28.278 142.309 28.021ZM142.057 21.3673C140.112 19.7867 140.91 23.8966 141.857 24.5016C142.956 25.2042 144.631 23.7861 142.057 21.3673ZM135.856 26.8955C136.059 30.3032 132.931 28.4155 132.46 26.1252C131.856 23.194 132.14 19.6301 132.581 16.4236C132.735 15.2996 132.538 14.3703 132.35 13.4198C131.552 11.8045 130.298 15.6069 130.127 16.2372C129.85 18.0748 129.209 29.3758 125.86 28.0951C124.34 27.5142 126.344 25.3178 126.641 23.6284C127.152 20.7212 128.977 9.10016 133.144 9.5333C136.006 10.1547 135.626 13.7441 135.556 16.0482C135.516 17.7178 135.142 17.8335 135.257 19.8851C135.396 22.3681 135.433 24.3547 135.856 26.8955ZM119.794 29.1712C119.804 28.0217 120.114 20.3532 118.467 20.5842C117.585 20.7084 113.11 21.9846 112.673 22.5348C111.715 23.7373 109.604 31.4758 107.965 30.822C106.362 29.6037 109.735 23.2075 109.73 20.675C109.762 17.6386 109.915 20.7444 111.387 17.2193C112.87 13.6681 117.791 3.38847 120.391 1.02106C123.033 -0.637399 124.261 2.44449 124.376 4.6963C124.483 8.95337 123.139 12.1938 123.454 16.6902C123.655 19.5541 123.167 21.7374 123.61 24.5842C123.889 26.3718 124.411 30.8319 121.744 31.1647C120.82 31.2798 119.794 30.0462 119.794 29.1715L119.794 29.1712ZM114.33 17.8001C114.496 16.221 119.689 7.48943 120.234 7.70457C121.196 8.75384 120.005 15.1146 119.567 16.5602C118.77 19.1943 113.815 18.4235 114.33 17.8001Z" fill="#003232"/>
<path d="M71.623 40.2356H72.2285V37.8339L74.5057 40.2356H75.2817L72.9034 37.7147L75.11 35.3361H74.3544L72.2285 37.6464V35.3361H71.623V40.2356ZM166.581 37.4953C166.759 36.825 167.292 36.4596 168.088 36.4596H168.09C169.085 36.4596 169.571 36.9705 169.571 38.0143V40.2347H168.971V39.6569C168.718 40.1033 168.284 40.3375 167.696 40.3375C166.93 40.3375 166.446 39.9227 166.446 39.2603C166.446 38.5057 167.009 38.1786 167.919 38.0629L168.97 37.9335C168.967 37.2907 168.684 37.0086 168.081 37.0086C167.568 37.0086 167.264 37.2096 167.141 37.6388L166.581 37.4953ZM168.97 38.4163V38.406L167.984 38.5285C167.319 38.6141 167.039 38.8185 167.039 39.2197C167.039 39.6092 167.306 39.8137 167.82 39.8137C168.388 39.8137 168.797 39.4855 168.913 38.9849C168.969 38.8012 168.97 38.5791 168.97 38.4163ZM165.622 40.2356V36.5611H165.021V38.2463C164.785 38.4092 164.517 38.4947 164.178 38.4947C163.581 38.4947 163.402 38.1918 163.402 37.533V36.5611H162.8V37.6176C162.8 38.5827 163.195 39.0299 164.063 39.0299C164.455 39.0299 164.778 38.9478 165.021 38.806V40.2356H165.62H165.622ZM159.595 39.2867L161.377 36.5614H161.977V40.2359H161.377V37.5103L159.595 40.2359H158.993V36.5614H159.595V39.2867ZM156.888 40.2345C157.768 40.2345 158.24 39.8797 158.24 39.2184C158.24 38.763 157.974 38.4348 157.63 38.3354C157.93 38.22 158.133 37.9574 158.133 37.5506C158.133 36.9046 157.674 36.5624 156.824 36.5624H155.366V40.2347H156.888V40.2345ZM156.824 37.0628C157.333 37.0628 157.554 37.2155 157.554 37.6058C157.554 37.9596 157.296 38.1135 156.925 38.1135H155.93V37.0628H156.824ZM155.933 38.6084H156.986C157.367 38.6084 157.66 38.7666 157.66 39.178C157.66 39.5653 157.391 39.7339 156.878 39.7339H155.933V38.6081V38.6084ZM154.546 38.3946C154.546 39.5458 153.869 40.3367 152.787 40.3367C151.704 40.3367 151.032 39.5354 151.032 38.3946C151.032 37.2466 151.714 36.4596 152.787 36.4596C153.876 36.4596 154.546 37.2537 154.546 38.3946ZM151.671 38.3946C151.671 39.2339 152.062 39.7596 152.787 39.7596C153.521 39.7596 153.906 39.2233 153.906 38.3946C153.906 37.5519 153.522 37.0364 152.787 37.0364C152.045 37.0364 151.671 37.5661 151.671 38.3946ZM146.884 40.2832C147.002 40.3192 147.114 40.3364 147.215 40.3364C147.791 40.3364 148.085 39.7435 148.085 38.4408V37.1325H149.606V40.2359H150.206V36.5614H147.522V38.2731C147.522 39.223 147.411 39.7816 147.036 39.7816C146.989 39.7816 146.938 39.7713 146.884 39.7538V40.2832ZM143.815 39.2868L145.597 36.5617H146.197V40.2362H145.597V37.5106L143.815 40.2362H143.215V36.5617H143.815V39.2868ZM131.526 40.2347H137.504V35.3362H136.899V39.6591H134.818V35.3362H134.213V39.6591H132.132V35.3362H131.526L131.526 40.2347ZM125.371 37.4956C125.55 36.8251 126.083 36.4599 126.879 36.4599H126.88C127.876 36.4599 128.362 36.9708 128.362 38.0145V40.2349H127.761V39.6572C127.508 40.1034 127.075 40.3378 126.487 40.3378C125.72 40.3378 125.238 39.9228 125.238 39.2604C125.238 38.506 125.8 38.1788 126.71 38.0632L127.761 37.9338C127.757 37.291 127.474 37.0089 126.872 37.0089C126.359 37.0089 126.054 37.2099 125.933 37.6389L125.372 37.4956H125.371ZM127.76 38.4166V38.4062L126.775 38.5288C126.11 38.6144 125.83 38.8186 125.83 39.22C125.83 39.6095 126.097 39.814 126.611 39.814C127.179 39.814 127.588 39.4856 127.703 38.9852C127.76 38.8014 127.76 38.5794 127.76 38.4166H127.76ZM121.741 39.6588C121.973 40.0821 122.365 40.3374 122.959 40.3374C123.959 40.3374 124.615 39.5465 124.615 38.3956C124.615 37.2615 123.966 36.4603 122.959 36.4603C122.368 36.4603 121.973 36.7122 121.741 37.1389V36.5621H121.141V41.8687H121.741V39.6586V39.6588ZM122.856 39.7607C122.121 39.7607 121.741 39.2233 121.741 38.3945C121.741 37.5933 122.094 37.0377 122.856 37.0377C123.602 37.0377 123.975 37.5701 123.975 38.3959C123.975 39.2048 123.607 39.7607 122.856 39.7607ZM120.319 38.3946C120.319 39.5458 119.643 40.3367 118.56 40.3367C117.477 40.3367 116.804 39.5354 116.804 38.3946C116.804 37.2466 117.488 36.4596 118.56 36.4596C119.649 36.4596 120.319 37.2537 120.319 38.3946ZM117.444 38.3946C117.444 39.2339 117.835 39.7596 118.56 39.7596C119.294 39.7596 119.679 39.2233 119.679 38.3946C119.679 37.5519 119.295 37.0364 118.56 37.0364C117.819 37.0364 117.444 37.5661 117.444 38.3946ZM115.103 40.2359V37.1325H116.354V36.5617H113.25V37.1325H114.502V40.2359H115.102H115.103ZM110.638 40.2359H110.038V36.5614H110.638V38.3297L112.167 36.5614H112.947L111.337 38.3981L113.136 40.2359H112.295L110.638 38.4662V40.2359H110.638ZM107.458 40.3367C108.54 40.3367 109.217 39.5458 109.217 38.3946C109.217 37.2537 108.547 36.4596 107.458 36.4596C106.385 36.4596 105.702 37.2466 105.702 38.3946C105.702 39.5354 106.375 40.3367 107.458 40.3367ZM107.458 39.7598C106.733 39.7598 106.342 39.2339 106.342 38.3949C106.342 37.5661 106.717 37.0367 107.458 37.0367C108.193 37.0367 108.577 37.5523 108.577 38.3949C108.577 39.2236 108.192 39.7598 107.458 39.7598ZM101.931 41.0184H101.331V39.6638H101.685C101.914 39.3923 101.959 38.6767 101.959 37.915V36.5604H104.678V39.6638H105.15V41.0184H104.55V40.2359H101.931V41.0184ZM102.524 38.2352C102.524 38.8502 102.446 39.3887 102.325 39.6638H104.077V37.1325H102.524V38.2352ZM96.9545 36.4599C96.1591 36.4599 95.626 36.8251 95.4472 37.4956L96.0075 37.6389C96.1291 37.2099 96.4343 37.0089 96.9474 37.0089C97.549 37.0089 97.832 37.291 97.8356 37.9338L96.7845 38.0632C95.8755 38.1788 95.3128 38.506 95.3128 39.2604C95.3128 39.9228 95.7954 40.3378 96.5622 40.3378C97.1498 40.3378 97.5831 40.1034 97.8364 39.6572V40.2349H98.437V38.0145C98.437 36.9708 97.9511 36.4599 96.9548 36.4599H96.9538H96.9545ZM97.8357 38.4062V38.4166C97.8357 38.5795 97.8357 38.8014 97.7784 38.9852C97.6638 39.4856 97.2545 39.814 96.6863 39.814C96.1726 39.814 95.9055 39.6095 95.9055 39.22C95.9055 38.8186 96.1849 38.6144 96.8512 38.5288L97.8356 38.4062H97.8357ZM92.6022 40.2359H92.0016V36.5614H92.6022V38.3297L94.1313 36.5614H94.9108L93.3004 38.3981L95.0991 40.2359H94.2587L92.6025 38.4662V40.2359H92.6022ZM90.3752 36.5614L88.5928 39.2867V36.5614H87.992V40.2359H88.5928L90.3752 37.5103V40.2359H90.9756V36.5614H90.3752ZM84.4528 38.6846V40.2359H83.8522V36.5614H84.4528V38.1127H86.3693V36.5614H86.9699V40.2359H86.3693V38.6846H84.4528ZM82.2244 36.5614L80.4432 39.2867V36.5614H79.8427V40.2359H80.4432L82.2244 37.5103V40.2359H82.8261V36.5614H82.2244ZM75.8243 40.3361C75.7232 40.3361 75.612 40.3189 75.494 40.2829V39.7535C75.5479 39.771 75.5982 39.7813 75.6453 39.7813C76.0201 39.7813 76.1313 39.223 76.1313 38.2728V36.5611H78.8156V40.2356H78.2152V37.1322H76.6952V38.4405C76.6952 39.7431 76.4007 40.3361 75.8243 40.3361ZM139.263 40.2356V37.7411L140.242 39.6876H140.747L141.726 37.7411V40.2356H142.327V36.5611H141.726L140.494 38.9964L139.263 36.5611H138.663V40.2356H139.263Z" fill="#003232"/>
<path d="M20.369 11.0614C24.5976 14.3159 26.6449 18.8586 27.1401 20.7234C25.8879 19.0791 22.8415 15.3024 20.6748 13.3499C21.1291 16.1015 23.8784 19.5936 25.0138 21.3973C22.8014 19.5936 20.0719 16.7059 18.8838 14.0617C17.3987 10.7565 15.8696 9.48517 14.5153 8.97673C13.1611 8.46803 12.3703 8.90573 10.4089 8.72249C7.6907 8.46827 6.15406 4.91223 4.81742 5.773C4.45497 6.00637 4.33487 6.8988 5.65104 9.2818C3.06815 7.29908 3.05864 4.91176 3.81281 4.3491C6.53625 2.31698 8.56142 8.38146 10.0158 6.68822C10.4089 6.23062 9.92848 5.21347 8.31216 3.84066C6.69584 2.4676 2.98253 0.738871 1.75958 2.51845C0.536168 4.29826 2.02168 6.9933 2.85173 8.11212C3.68176 9.23071 5.47289 10.6038 6.5648 12.18C7.65692 13.7566 9.75368 15.8415 11.4575 16.2989C12.8203 16.6652 16.0734 17.7737 17.5297 18.2818C15.3162 17.1124 10.514 14.4071 9.01116 12.9426C7.50828 11.478 7.28067 10.4025 6.98981 8.51864C7.68879 9.0609 9.55579 10.0828 10.4089 11.8747C11.2827 13.6036 12.9428 14.0104 13.3797 13.5528C13.8166 13.0949 13.661 12.0485 12.6564 10.9297C16.7189 12.3536 17.8793 16.1458 20.2379 18.5869C22.597 21.0274 23.531 20.7833 27.5061 24.0378C23.3996 21.5971 18.1849 20.9261 15.8258 20.9261C13.4667 20.9261 11.1077 20.8752 9.36029 20.5193C7.61293 20.1634 7.26354 18.8412 7.17602 18.2817C7.08874 17.7225 7.06377 16.1914 7.67548 17.0558C8.28718 17.9202 10.4962 18.5869 9.75343 17.163C9.01092 15.7392 7.26356 14.5186 6.38998 15.0781C5.51618 15.6374 5.29785 17.5189 5.82204 19.6039C6.34646 21.6887 8.66153 22.8584 12.5059 22.6547C16.35 22.4514 19.6264 22.8581 22.1166 23.1124C24.1084 23.3158 26.5159 24.1803 27.5063 24.5874C26.6035 24.638 24.5718 24.8516 23.3835 25.299C21.8982 25.8583 19.5394 26.8756 16.6998 26.3162C18.2727 25.9602 19.7578 25.299 22.8158 24.3328C15.2583 24.7399 12.5061 26.9265 10.9336 28.6044C9.36076 30.2825 9.22996 33.2828 10.7588 37.2998C9.33604 36.2081 8.13759 34.1472 7.6134 32.8253C7.08921 31.5031 6.4775 27.3335 11.4578 25.299C5.60394 24.0787 4.55557 18.892 4.46804 16.8071C4.38077 14.7223 4.55557 12.6882 2.02192 8.72178C-0.511966 4.75539 -0.206112 2.2635 0.623929 1.19575C1.45396 0.127761 4.77389 -0.431296 8.79306 2.77218C12.8122 5.97591 15.0835 6.99281 20.3694 11.0609L20.369 11.0614ZM37.6102 11.0614C33.3816 14.3159 31.3343 18.8586 30.8394 20.7234C32.0916 19.0791 35.1377 15.3024 37.3046 13.3499C36.8501 16.1015 34.1007 19.5936 32.9656 21.3973C35.1776 19.5936 37.9073 16.7059 39.0955 14.0617C40.5808 10.7565 42.1097 9.48517 43.464 8.97673C44.8183 8.46803 45.6091 8.90573 47.5703 8.72249C50.2888 8.46827 51.8254 4.91223 53.162 5.773C53.5242 6.00637 53.6443 6.8988 52.3282 9.2818C54.911 7.29908 54.9208 4.91176 54.1666 4.3491C51.4431 2.31698 49.4179 8.38146 47.9636 6.68822C47.5703 6.23062 48.0509 5.21347 49.6673 3.84066C51.2834 2.4676 54.9966 0.738871 56.2198 2.51845C57.443 4.29826 55.9578 6.9933 55.1276 8.11212C54.2976 9.23071 52.5066 10.6038 51.4146 12.18C50.3224 13.7566 48.2255 15.8415 46.522 16.2989C45.1589 16.6652 41.9058 17.7737 40.4498 18.2818C42.663 17.1124 47.4654 14.4071 48.9683 12.9426C50.4711 11.478 50.6987 10.4025 50.9894 8.51864C50.2906 9.0609 48.4236 10.0828 47.5703 11.8747C46.6965 13.6036 45.0366 14.0104 44.5997 13.5528C44.1628 13.0949 44.3181 12.0485 45.3229 10.9297C41.2603 12.3536 40.1001 16.1458 37.7413 18.5869C35.3825 21.0274 34.4485 20.7833 30.4734 24.0378C34.5795 21.5971 39.7945 20.9261 42.1536 20.9261C44.5124 20.9261 46.8715 20.8752 48.6189 20.5193C50.3665 20.1634 50.7159 18.8412 50.8033 18.2817C50.8906 17.7225 50.9153 16.1914 50.3037 17.0558C49.6923 17.9202 47.4832 18.5869 48.2257 17.163C48.9685 15.7392 50.7159 14.5186 51.5894 15.0781C52.4632 15.6374 52.6815 17.5189 52.1572 19.6039C51.6329 21.6887 49.3176 22.8584 45.4735 22.6547C41.6292 22.4514 38.3529 22.8581 35.8626 23.1124C33.871 23.3158 31.4634 24.1803 30.4731 24.5874C31.3759 24.638 33.4077 24.8516 34.596 25.299C36.081 25.8583 38.4401 26.8756 41.2795 26.3162C39.7068 25.9602 38.2215 25.299 35.1637 24.3328C42.7209 24.7399 45.4733 26.9265 47.0459 28.6044C48.6184 30.2825 48.7494 33.2828 47.2206 37.2998C48.6434 36.2081 49.8418 34.1472 50.3661 32.8253C50.8902 31.5031 51.5017 27.3335 46.5217 25.299C52.3752 24.0787 53.4236 18.892 53.5111 16.8071C53.5987 14.7223 53.4236 12.6882 55.9575 8.72178C58.4912 4.75539 58.1855 2.2635 57.3555 1.19575C56.5252 0.127761 53.2055 -0.431296 49.1864 2.77218C45.1671 5.97591 42.8959 6.99281 37.6098 11.0609L37.6102 11.0614ZM25.211 26.7168C26.4618 26.3507 27.2378 25.5805 27.4697 25.2412C28.0602 24.3459 27.6001 19.5933 28.9897 19.5933C30.3794 19.5933 29.919 24.3459 30.5097 25.2412C30.7416 25.5805 31.5174 26.3507 32.7683 26.7168C34.332 27.1749 38.4144 27.8365 41.715 28.0397C45.0159 28.2434 46.6227 29.5663 46.7963 31.6524C46.9701 33.7388 46.7093 34.9089 46.4054 36.0794C45.3632 33.7893 43.9732 32.0087 41.324 31.0418C38.6751 30.0751 33.3901 27.9156 31.9324 27.0833C33.6264 28.8135 35.7216 29.8205 37.4587 30.5837C39.1962 31.3471 44.4946 33.7385 46.4054 38.1655C48.3163 42.5922 41.9321 41.6896 39.5433 41.1168C37.2597 40.5692 35.3115 38.8779 34.6599 40.7095C32.6623 38.5218 31.2292 34.4002 31.3592 32.6192C32.6622 34.1458 33.3463 37.0461 34.2692 37.7584C34.8073 38.1738 35.1377 39.1856 39.3265 39.641C43.1891 40.061 45.7977 39.3866 45.6239 38.4706C45.45 37.5549 40.0647 34.9597 39.9778 35.5196C39.8909 36.0791 41.1071 37.6055 41.9321 38.1655C42.7574 38.7249 41.1501 38.369 40.2383 37.7584C39.3265 37.1477 37.7627 35.5703 36.8509 35.4178C35.9387 35.2653 37.2419 37.3514 37.7627 37.7584C38.284 38.1655 37.5889 38.369 36.5036 37.7584C35.4177 37.1477 34.4187 35.4178 33.8974 32.4156C33.4802 30.0142 31.4653 27.6157 30.5097 26.7167C30.6547 29.4983 30.5535 36.0891 28.9897 40.2007C27.4263 36.0894 27.325 29.4983 27.4697 26.7167C26.5144 27.6156 24.499 30.0142 24.0822 32.4156C23.5609 35.4178 22.5621 37.1477 21.476 37.7584C20.3903 38.369 19.6956 38.1655 20.2168 37.7584C20.738 37.3511 22.0409 35.2653 21.1288 35.4178C20.2168 35.5706 18.6533 37.1477 17.7414 37.7584C16.8292 38.369 15.2222 38.7249 16.0475 38.1655C16.8727 37.6058 18.0886 36.0794 18.0018 35.5196C17.9149 34.9597 12.5294 37.5548 12.3558 38.4706C12.182 39.3865 14.7904 40.0608 18.6533 39.641C22.842 39.1856 23.172 38.1738 23.7102 37.7584C24.633 37.0461 25.3173 34.1455 26.6204 32.6192C26.7508 34.4002 25.3175 38.5218 23.3194 40.7095C22.6681 38.8779 20.7197 40.5691 18.4361 41.1168C16.0475 41.6896 9.66306 42.5925 11.5743 38.1655C13.4853 33.7388 18.7835 31.3471 20.5209 30.5837C22.258 29.8205 24.3534 28.8135 26.047 27.0833C24.5895 27.9156 19.3046 30.0751 16.6554 31.0418C14.0061 32.0084 12.6165 33.7893 11.5743 36.0794C11.2701 34.9087 11.0097 33.7388 11.1833 31.6524C11.3571 29.5663 12.964 28.2437 16.2646 28.0397C19.5656 27.8365 23.6477 27.1746 25.211 26.7168ZM28.9895 20.7637C28.671 22.2562 28.1052 25.7704 28.1052 27.8872C28.1052 30.004 28.671 33.7896 28.9895 35.4181C29.3079 33.7899 29.8739 30.004 29.8739 27.8872C29.8739 25.7704 29.3079 22.2562 28.9895 20.7637Z" fill="#EB8C78"/>
</g>
<defs>
<clipPath id="clip0_1705_10275">
<rect width="172" height="42" fill="white"/>
</clipPath>
</defs>
</svg>
