<svg width="1153" height="1144" viewBox="0 0 1153 1144" fill="none" xmlns="http://www.w3.org/2000/svg">
<g clip-path="url(#clip0_1763_9522)">
<path d="M531.589 535.608L594.146 475.672C618.584 452.257 608.371 411.432 575.757 402.181L492.279 378.51C459.665 369.258 429.117 398.536 437.286 431.197L458.212 514.796C466.383 547.47 507.151 559.023 531.589 535.608Z" stroke="#416935" stroke-width="0.3" stroke-miterlimit="10"/>
<path d="M535.837 549.811L610.594 468.998C634.624 444.493 622.955 403.424 589.594 395.076L481.814 371.407C448.447 363.067 418.415 393.703 427.747 426.557L460.777 531.044C470.101 563.893 511.802 574.325 535.837 549.811Z" stroke="#416935" stroke-width="0.3" stroke-miterlimit="10"/>
<path d="M540.077 564.008L627.031 462.304C650.651 436.695 637.527 395.395 603.412 387.944L471.323 364.273C437.202 356.829 407.68 388.832 418.181 421.885L463.315 547.247C473.812 580.321 516.457 589.617 540.077 564.008Z" stroke="#416935" stroke-width="0.3" stroke-miterlimit="10"/>
<path d="M544.316 578.214L643.47 455.634C666.682 428.933 652.107 387.382 617.234 380.849L460.842 357.18C425.975 350.64 396.958 384.017 408.627 417.255L465.864 563.505C477.526 596.738 521.109 604.906 544.316 578.214Z" stroke="#416935" stroke-width="0.3" stroke-miterlimit="10"/>
<path d="M548.552 592.42L659.912 448.956C682.708 421.159 666.685 379.368 631.057 373.733L450.357 350.061C414.742 344.424 386.236 379.168 399.067 412.6L468.414 579.729C481.234 613.176 525.756 620.217 548.552 592.42Z" stroke="#416935" stroke-width="0.3" stroke-miterlimit="10"/>
<path d="M552.798 606.615L676.349 442.269C698.738 413.381 681.258 371.346 644.883 366.614L439.873 342.938C403.499 338.206 375.516 374.315 389.504 407.948L470.955 595.964C484.948 629.59 530.409 635.503 552.798 606.615Z" stroke="#416935" stroke-width="0.3" stroke-miterlimit="10"/>
<path d="M556.119 620.122L691.876 434.89C713.85 404.906 694.921 362.632 657.799 358.803L428.487 335.129C391.365 331.3 363.892 368.776 379.034 402.597L472.59 611.502C487.738 645.315 534.139 650.113 556.119 620.122Z" stroke="#416935" stroke-width="0.3" stroke-miterlimit="10"/>
<path d="M560.365 621.712L692.07 429.636C713.388 398.543 692.843 356.284 655.074 353.574L421.8 336.812C384.031 334.101 357.385 372.965 373.83 406.776L475.4 615.614C491.843 649.412 539.047 652.805 560.365 621.712Z" stroke="#416935" stroke-width="0.3" stroke-miterlimit="10"/>
<path d="M564.608 623.265L692.266 424.337C712.928 392.136 690.758 349.886 652.35 348.3L415.108 338.457C376.706 336.863 350.873 377.117 368.614 410.912L478.19 619.677C495.931 653.473 543.94 655.474 564.608 623.265Z" stroke="#416935" stroke-width="0.3" stroke-miterlimit="10"/>
<path d="M568.853 624.848L692.458 419.075C712.465 385.765 688.679 343.532 649.63 343.056L408.433 340.131C369.384 339.654 344.378 381.297 363.408 415.085L480.999 623.782C500.035 657.563 548.847 658.158 568.853 624.848Z" stroke="#416935" stroke-width="0.3" stroke-miterlimit="10"/>
<path d="M573.092 626.432L692.651 413.807C712.002 379.389 686.586 337.172 646.903 337.813L401.744 341.799C362.055 342.447 337.862 385.466 358.195 419.245L483.801 627.875C504.133 661.653 553.735 660.845 573.092 626.432Z" stroke="#416935" stroke-width="0.3" stroke-miterlimit="10"/>
<path d="M577.338 628.013L692.844 408.544C711.539 373.017 684.507 330.816 644.177 332.575L395.056 343.474C354.734 345.238 331.354 389.647 352.982 423.41L486.589 631.975C508.225 665.743 558.63 663.542 577.338 628.013Z" stroke="#416935" stroke-width="0.3" stroke-miterlimit="10"/>
<path d="M581.58 629.589L693.039 403.268C711.078 366.632 682.422 324.441 641.453 327.324L388.372 345.148C347.402 348.031 324.849 393.828 347.773 427.576L489.395 636.073C512.326 669.826 563.534 666.22 581.58 629.589Z" stroke="#416935" stroke-width="0.3" stroke-miterlimit="10"/>
<path d="M586.068 629.46L691.825 396.497C708.945 358.784 678.528 316.915 637.08 321.135L381.039 347.199C339.591 351.42 318.186 398.558 342.521 432.056L492.813 638.96C517.138 672.439 568.947 667.172 586.068 629.46Z" stroke="#416935" stroke-width="0.3" stroke-miterlimit="10"/>
<path d="M590.564 629.364L690.611 389.754C706.807 350.959 674.642 309.422 632.714 314.966L373.714 349.271C331.78 354.823 311.538 403.313 337.268 436.551L496.224 641.869C521.952 675.094 574.361 668.154 590.564 629.364Z" stroke="#416935" stroke-width="0.3" stroke-miterlimit="10"/>
<path d="M595.054 629.268L689.396 383.003C704.669 343.139 670.748 301.916 628.341 308.797L366.368 351.345C323.956 358.234 304.876 408.063 332.009 441.046L499.627 644.765C526.766 677.74 579.782 669.132 595.054 629.268Z" stroke="#416935" stroke-width="0.3" stroke-miterlimit="10"/>
<path d="M599.54 629.154L688.171 376.241C702.519 335.295 666.843 294.399 623.959 302.618L359.032 353.398C316.148 361.617 298.209 412.795 326.746 445.523L503.034 647.648C531.577 680.369 585.185 670.095 599.54 629.154Z" stroke="#416935" stroke-width="0.3" stroke-miterlimit="10"/>
<path d="M604.032 629.033L686.961 369.479C700.385 327.463 662.952 286.882 619.59 296.438L351.701 355.446C308.339 365.002 291.556 417.526 321.494 449.986L506.453 650.518C536.4 682.997 590.608 671.049 604.032 629.033Z" stroke="#416935" stroke-width="0.3" stroke-miterlimit="10"/>
<path d="M608.52 628.952L685.744 362.744C698.243 319.645 659.063 279.396 615.221 290.277L344.374 357.539C300.526 368.427 284.899 422.297 316.248 454.507L509.871 653.454C541.213 685.659 596.027 672.043 608.52 628.952Z" stroke="#416935" stroke-width="0.3" stroke-miterlimit="10"/>
<path d="M614.112 627.393L683.873 355.067C695.16 310.982 654.147 271.404 610.042 283.827L337.574 360.575C293.468 372.998 279.349 428.108 312.168 459.769L514.882 655.353C547.679 687.011 602.811 671.479 614.112 627.393Z" stroke="#416935" stroke-width="0.3" stroke-miterlimit="10"/>
<path d="M619.704 625.811L681.99 347.369C692.071 302.291 649.214 263.399 604.843 277.351L330.759 363.577C286.382 377.537 273.778 433.88 308.073 464.998L519.871 657.213C554.153 688.333 609.615 670.883 619.704 625.811Z" stroke="#416935" stroke-width="0.3" stroke-miterlimit="10"/>
<path d="M625.294 624.261L680.117 339.702C688.993 293.63 644.296 255.416 599.661 270.911L323.944 366.625C279.309 382.12 268.213 439.703 303.977 470.272L524.867 659.125C560.623 689.688 616.41 670.327 625.294 624.261Z" stroke="#416935" stroke-width="0.3" stroke-miterlimit="10"/>
<path d="M630.882 622.709L678.243 332.032C685.907 284.974 639.371 247.439 594.479 264.469L317.14 369.669C272.248 386.699 262.661 445.522 299.888 475.549L529.861 661.034C567.095 691.054 623.218 669.766 630.882 622.709Z" stroke="#416935" stroke-width="0.3" stroke-miterlimit="10"/>
<path d="M636.471 621.132L676.369 324.338C682.827 276.287 634.453 239.443 589.296 258.002L310.336 372.688C265.173 391.256 257.1 451.311 295.805 480.795L534.869 662.917C573.564 692.382 630.018 669.176 636.471 621.132Z" stroke="#416935" stroke-width="0.3" stroke-miterlimit="10"/>
<path d="M642.972 618.367L675.399 315.451C680.646 266.414 630.439 230.241 585.018 250.343L304.439 374.515C259.018 394.617 252.454 455.912 292.628 484.847L540.775 663.599C580.941 692.528 637.72 667.411 642.972 618.367Z" stroke="#416935" stroke-width="0.3" stroke-miterlimit="10"/>
<path d="M650.037 615.072L673.145 306.155C676.907 256.451 625.031 221.46 579.769 243.178L298.599 378.368C253.337 400.086 248.637 462.209 290.132 490.203L548.194 663.929C589.702 691.921 646.275 664.776 650.037 615.072Z" stroke="#416935" stroke-width="0.3" stroke-miterlimit="10"/>
<path d="M657.113 611.747L670.898 296.838C673.174 246.467 619.638 212.664 574.532 235.984L292.765 382.187C247.666 405.513 244.819 468.478 287.647 495.515L555.63 664.222C598.46 691.272 654.837 662.118 657.113 611.747Z" stroke="#416935" stroke-width="0.3" stroke-miterlimit="10"/>
<path d="M664.187 608.405L668.646 287.49C669.437 236.452 614.233 203.831 569.292 228.772L286.929 386.001C241.989 410.943 241.006 474.736 285.164 500.837L563.059 664.519C607.217 690.62 663.396 659.443 664.187 608.405Z" stroke="#416935" stroke-width="0.3" stroke-miterlimit="10"/>
<path d="M671.249 605.125L666.385 278.216C665.677 226.514 608.826 195.078 564.041 221.622L281.088 389.869C236.306 416.426 237.182 481.054 282.672 506.2L570.489 664.861C615.974 690.015 671.957 656.828 671.249 605.125Z" stroke="#416935" stroke-width="0.3" stroke-miterlimit="10"/>
<path d="M678.329 601.816L664.14 268.901C661.947 216.532 603.427 186.278 558.808 214.443L275.259 393.716C230.64 421.881 233.375 487.344 280.187 511.549L577.918 665.185C624.743 689.388 680.514 654.18 678.329 601.816Z" stroke="#416935" stroke-width="0.3" stroke-miterlimit="10"/>
<path d="M685.391 598.498L661.879 259.591C658.2 206.554 598.02 177.488 553.551 207.263L269.413 397.554C224.952 427.334 229.551 493.625 277.69 516.881L585.335 665.505C633.488 688.759 689.069 651.535 685.391 598.498Z" stroke="#416935" stroke-width="0.3" stroke-miterlimit="10"/>
<path d="M694.307 594.549L658.629 247.841C653.41 195.054 592.533 167.778 549.05 198.761L264.163 403.425C220.672 434.403 227.2 500.387 275.904 522.205L596.468 664.248C645.165 686.06 699.52 647.344 694.307 594.549Z" stroke="#416935" stroke-width="0.3" stroke-miterlimit="10"/>
<path d="M703.206 590.593L655.355 236.08C648.601 183.534 587.023 158.069 544.516 190.242L258.882 409.279C216.375 441.452 224.819 507.145 274.085 527.511L607.571 662.986C656.826 683.367 709.955 643.147 703.206 590.593Z" stroke="#416935" stroke-width="0.3" stroke-miterlimit="10"/>
<path d="M712.104 586.653L652.08 224.336C643.791 172.031 581.512 148.376 539.988 181.744L253.606 415.154C212.077 448.53 222.441 513.911 272.26 532.84L618.666 661.748C668.49 680.67 720.398 638.951 712.104 586.653Z" stroke="#416935" stroke-width="0.3" stroke-miterlimit="10"/>
<path d="M721.021 582.723L648.825 212.6C638.995 160.544 576.019 138.68 535.468 173.258L248.338 421.04C207.791 455.611 220.078 520.693 270.454 538.179L629.78 660.519C680.162 677.997 730.85 634.779 721.021 582.723Z" stroke="#416935" stroke-width="0.3" stroke-miterlimit="10"/>
<path d="M729.927 578.772L645.566 200.849C634.202 149.034 570.525 128.981 530.957 164.755L243.066 426.911C203.497 462.685 217.705 527.455 268.645 543.502L640.892 659.275C691.836 675.302 741.291 630.587 729.927 578.772Z" stroke="#416935" stroke-width="0.3" stroke-miterlimit="10"/>
<path d="M738.825 574.842L642.292 189.114C629.379 137.542 565.008 119.292 526.423 156.26L237.783 432.789C199.192 469.766 215.328 534.23 266.825 548.833L651.993 658.039C703.496 672.634 751.737 626.413 738.825 574.842Z" stroke="#416935" stroke-width="0.3" stroke-miterlimit="10"/>
<path d="M748.855 569.794L636.967 178.149C622.586 127.079 557.841 110.726 520.424 148.707L234.273 441.397C196.856 479.378 214.825 543.218 266.629 556.299L664.667 655.254C716.458 668.337 763.229 620.857 748.855 569.794Z" stroke="#416935" stroke-width="0.3" stroke-miterlimit="10"/>
<path d="M758.894 564.743L631.653 167.181C615.803 116.614 550.684 102.159 514.443 141.157L230.78 450.008C194.539 489.007 214.352 552.207 266.444 563.775L677.347 652.487C729.439 664.055 774.744 615.31 758.894 564.743Z" stroke="#416935" stroke-width="0.3" stroke-miterlimit="10"/>
<path d="M768.906 559.685L626.31 156.205C608.986 106.148 543.5 93.5828 508.426 133.593L227.239 458.607C192.171 498.61 213.825 561.191 266.223 571.238L690.005 649.704C742.39 659.753 786.23 609.742 768.906 559.685Z" stroke="#416935" stroke-width="0.3" stroke-miterlimit="10"/>
<path d="M778.934 554.614L620.986 145.217C602.193 95.6622 536.333 84.9948 502.427 126.017L223.728 467.191C189.836 508.212 213.326 570.148 266.019 578.688L702.667 646.912C755.366 655.444 797.728 604.169 778.934 554.614Z" stroke="#416935" stroke-width="0.3" stroke-miterlimit="10"/>
<path d="M788.963 549.561L615.661 134.246C595.393 85.201 529.152 76.4256 496.441 118.456L220.223 475.785C187.498 517.817 212.835 579.128 265.827 586.14L715.34 644.12C768.334 651.146 809.23 598.605 788.963 549.561Z" stroke="#416935" stroke-width="0.3" stroke-miterlimit="10"/>
<path d="M800.853 545.874L612.204 124.645C590.46 76.0965 523.853 69.2242 492.309 112.267L218.571 485.766C187.028 528.808 214.204 589.487 267.491 594.993L729.878 642.724C783.157 648.224 822.589 594.417 800.853 545.874Z" stroke="#416935" stroke-width="0.3" stroke-miterlimit="10"/>
<path d="M812.405 540.144L605.361 115.748C582.254 67.9566 515.61 63.0061 485.393 106.848L218.055 497.742C187.845 541.576 216.719 601.321 270.036 605.278L744.426 638.785C797.742 642.729 835.512 587.935 812.405 540.144Z" stroke="#416935" stroke-width="0.3" stroke-miterlimit="10"/>
<path d="M823.966 534.363L598.526 106.802C574.062 59.7591 507.375 56.7382 478.491 101.372L217.546 509.656C188.662 554.29 219.248 613.097 272.596 615.506L758.982 634.783C812.33 637.192 848.431 581.405 823.966 534.363Z" stroke="#416935" stroke-width="0.3" stroke-miterlimit="10"/>
<path d="M835.525 528.611L591.688 97.8846C565.859 51.5855 499.138 50.4996 471.594 95.9308L217.05 521.61C189.499 567.036 221.789 624.901 275.169 625.774L773.545 630.829C826.923 631.69 861.354 574.91 835.525 528.611Z" stroke="#416935" stroke-width="0.3" stroke-miterlimit="10"/>
<path d="M847.08 522.846L584.846 88.9538C557.654 43.4114 490.897 44.2475 464.686 90.4705L216.542 533.546C190.331 579.769 224.32 636.699 277.723 636.018L788.102 626.848C841.505 626.168 874.272 568.388 847.08 522.846Z" stroke="#416935" stroke-width="0.3" stroke-miterlimit="10"/>
<path d="M858.635 517.086L578.01 80.0206C549.453 35.2217 482.663 38.0064 457.777 85.0156L216.027 545.481C191.149 592.496 226.836 648.491 280.277 646.267L802.652 622.867C856.087 620.651 887.185 561.879 858.635 517.086Z" stroke="#416935" stroke-width="0.3" stroke-miterlimit="10"/>
<path d="M870.196 511.374L571.174 71.1433C541.254 27.1012 474.427 31.8079 450.882 79.6146L215.526 557.47C191.98 605.277 229.379 660.335 282.845 656.57L817.215 618.94C870.675 615.183 900.111 555.424 870.196 511.374Z" stroke="#416935" stroke-width="0.3" stroke-miterlimit="10"/>
<path d="M882.648 504.684L562.534 64.9499C531.404 21.872 464.881 28.4911 442.784 76.8559L218.379 572.587C196.282 620.952 235.201 674.789 288.42 669.497L832.946 613.505C886.165 608.213 913.783 547.754 882.648 504.684Z" stroke="#416935" stroke-width="0.3" stroke-miterlimit="10"/>
<path d="M895.101 497.994L553.895 58.7574C521.558 16.657 455.323 25.1771 434.687 74.098L221.213 587.7C200.57 636.616 240.995 689.235 293.983 682.426L848.663 608.06C901.641 601.232 927.443 540.087 895.101 497.994Z" stroke="#416935" stroke-width="0.3" stroke-miterlimit="10"/>
<path d="M907.564 491.304L545.272 52.5573C511.72 11.4288 445.794 21.8537 426.605 71.3195L224.07 602.799C204.88 652.265 246.82 703.672 299.561 695.335L864.396 602.608C917.13 594.265 941.116 532.433 907.564 491.304Z" stroke="#416935" stroke-width="0.3" stroke-miterlimit="10"/>
<path d="M920.01 484.607L536.617 46.352C501.858 6.20107 436.228 18.5329 418.492 68.5491L226.889 617.901C209.154 667.917 252.607 718.112 305.102 708.246L880.085 597.152C932.606 587.283 954.777 524.764 920.01 484.607Z" stroke="#416935" stroke-width="0.3" stroke-miterlimit="10"/>
<path d="M932.47 477.914L527.984 40.1564C492.01 0.977477 426.688 15.214 410.402 65.7884L229.743 633.01C213.456 683.584 258.43 732.559 310.686 721.171L895.83 591.707C948.097 580.304 968.445 517.093 932.47 477.914Z" stroke="#416935" stroke-width="0.3" stroke-miterlimit="10"/>
<path d="M944.938 471.229L519.365 33.961C482.175 -4.24596 417.157 11.9031 402.325 63.0279L232.606 648.127C217.773 699.252 264.261 747.014 316.276 734.091L911.568 586.259C963.585 573.349 982.128 509.436 944.938 471.229Z" stroke="#416935" stroke-width="0.3" stroke-miterlimit="10"/>
<path d="M955.966 462.428L507.168 30.2194C468.962 -6.8217 404.568 11.1451 391.269 62.5718L237.528 665.075C224.226 716.489 271.987 762.79 323.493 748.417L926.025 578.117C977.546 563.743 994.171 499.469 955.966 462.428Z" stroke="#416935" stroke-width="0.3" stroke-miterlimit="10"/>
<path d="M967.019 453.6L494.996 26.4503C455.761 -9.42282 392.007 10.373 380.231 62.0825L242.477 682.01C230.701 733.719 279.742 778.565 330.752 762.728L940.53 569.951C991.526 554.116 1006.25 489.481 967.019 453.6Z" stroke="#416935" stroke-width="0.3" stroke-miterlimit="10"/>
<path d="M978.048 444.798L482.805 22.6997C442.554 -12.0075 379.418 9.61376 369.176 61.6251L247.402 698.97C237.152 750.976 287.479 794.358 337.979 777.06L954.996 561.812C1005.5 544.514 1018.31 479.51 978.048 444.798Z" stroke="#416935" stroke-width="0.3" stroke-miterlimit="10"/>
<path d="M989.091 435.985L470.623 18.9467C429.343 -14.5925 366.852 8.85023 358.128 61.1521L252.34 715.908C243.622 768.202 295.223 810.136 345.213 791.376L969.47 553.658C1019.48 534.909 1030.37 469.532 989.091 435.985Z" stroke="#416935" stroke-width="0.3" stroke-miterlimit="10"/>
<path d="M1000.13 427.166L458.439 15.1878C416.136 -17.1911 354.272 8.08276 347.087 60.6787L257.28 732.853C250.087 785.443 302.961 825.916 352.462 805.697L983.958 545.509C1033.45 525.284 1042.44 459.545 1000.13 427.166Z" stroke="#416935" stroke-width="0.3" stroke-miterlimit="10"/>
<path d="M1009.1 421.138L444.186 14.2145C400.861 -16.9905 339.629 10.1067 333.962 62.9928L260.142 752.573C254.476 805.46 308.635 844.468 357.62 822.795L996.357 540.13C1045.35 518.449 1052.42 452.343 1009.1 421.138Z" stroke="#416935" stroke-width="0.3" stroke-miterlimit="10"/>
<path d="M1017.02 411.091L427.56 14.6479C383.436 -15.2324 323.143 13.5474 319.037 66.4591L266.587 771.868C262.481 824.779 317.644 862.129 365.876 839.111L1007.78 530.145C1056.01 507.114 1061.14 440.971 1017.02 411.091Z" stroke="#416935" stroke-width="0.3" stroke-miterlimit="10"/>
<path d="M1024.93 401.06L410.934 15.0965C366.002 -13.465 306.651 17.0108 304.106 69.9482L273.025 791.184C270.481 844.122 326.641 879.819 374.124 855.436L1019.2 520.163C1066.68 495.787 1069.86 429.608 1024.93 401.06Z" stroke="#416935" stroke-width="0.3" stroke-miterlimit="10"/>
<path d="M1032.85 391.053L394.319 15.5754C348.586 -11.6616 290.183 20.5023 289.186 73.4675L279.479 810.524C278.488 863.481 335.659 897.525 382.381 871.791L1030.63 510.205C1077.35 484.485 1078.59 418.283 1032.85 391.053Z" stroke="#416935" stroke-width="0.3" stroke-miterlimit="10"/>
<path d="M1040.77 381.029L377.691 16.0376C331.152 -9.86734 273.689 23.9792 274.259 76.9625L285.928 829.852C286.497 882.836 344.658 915.222 390.641 888.142L1042.05 500.25C1088.01 473.159 1087.31 406.934 1040.77 381.029Z" stroke="#416935" stroke-width="0.3" stroke-miterlimit="10"/>
<path d="M1048.7 370.973L361.073 16.4612C313.734 -8.11932 257.211 27.4098 259.336 80.4264L292.378 849.136C294.495 902.147 353.673 932.873 398.894 904.442L1053.48 490.244C1098.68 461.816 1096.04 395.554 1048.7 370.973Z" stroke="#416935" stroke-width="0.3" stroke-miterlimit="10"/>
<path d="M1056.62 360.957L344.453 16.924C296.314 -6.33215 240.732 30.8928 244.411 83.9296L298.828 868.473C302.506 921.51 362.687 950.576 407.155 920.801L1064.9 480.291C1109.36 450.504 1104.76 384.214 1056.62 360.957Z" stroke="#416935" stroke-width="0.3" stroke-miterlimit="10"/>
<path d="M1060.69 349.293L323.691 21.9038C274.987 0.0861567 220.633 38.8155 225.852 91.6033L307.169 889.122C312.388 941.909 373.265 969.185 416.748 938.202L1072.43 468.073C1115.91 437.102 1109.39 371.111 1060.69 349.293Z" stroke="#416935" stroke-width="0.3" stroke-miterlimit="10"/>
<path d="M1064.77 337.659L302.941 26.9219C253.68 6.5484 200.552 46.7688 207.3 99.3229L315.523 909.822C322.277 962.368 383.855 987.833 426.362 955.66L1079.97 455.899C1122.47 423.713 1114.03 358.033 1064.77 337.659Z" stroke="#416935" stroke-width="0.3" stroke-miterlimit="10"/>
<path d="M1068.84 325.96L282.189 31.8654C232.371 12.936 180.462 54.6551 188.751 106.96L323.872 930.434C332.161 982.739 394.439 1006.39 435.963 973.025L1087.5 443.645C1129.03 410.27 1118.66 344.889 1068.84 325.96Z" stroke="#416935" stroke-width="0.3" stroke-miterlimit="10"/>
<path d="M1072.92 314.323L261.434 36.88C211.058 19.3947 160.369 62.6125 170.199 114.669L332.217 951.117C342.047 1003.17 405.022 1025.04 445.574 990.459L1095.04 431.448C1135.59 396.883 1123.3 331.801 1072.92 314.323Z" stroke="#416935" stroke-width="0.3" stroke-miterlimit="10"/>
<path d="M1077 302.672L240.685 41.8706C189.744 25.8237 140.283 70.5458 151.648 122.361L340.571 971.79C351.935 1023.61 415.611 1043.66 455.18 1007.89L1102.57 419.256C1142.15 383.488 1127.94 318.719 1077 302.672Z" stroke="#416935" stroke-width="0.3" stroke-miterlimit="10"/>
<path d="M1081.08 290.981L219.941 46.8352C168.444 32.2323 120.203 78.4531 133.115 130.025L348.935 992.429C361.847 1044 426.218 1062.25 464.803 1025.28L1110.12 407.023C1148.71 370.047 1132.58 305.583 1081.08 290.981Z" stroke="#416935" stroke-width="0.3" stroke-miterlimit="10"/>
<path d="M1081.9 275.357L196.923 54.6228C145.132 41.54 98.3621 89.019 112.736 140.082L360.872 1011.22C375.253 1062.29 439.998 1078.64 477.415 1040.66L1114.26 390.257C1151.68 352.277 1133.69 288.439 1081.9 275.357Z" stroke="#416935" stroke-width="0.3" stroke-miterlimit="10"/>
<path d="M1082.74 259.772L173.922 62.4548C121.831 50.8863 76.526 99.631 92.376 150.198L372.821 1030.06C388.671 1080.62 453.789 1095.08 490.03 1056.08L1118.4 373.538C1154.65 334.546 1134.83 271.333 1082.74 259.772Z" stroke="#416935" stroke-width="0.3" stroke-miterlimit="10"/>
<path d="M1083.57 244.162L150.922 70.2607C98.5308 60.2065 54.6985 110.223 72.0228 160.279L384.776 1048.86C402.1 1098.92 467.586 1111.48 502.659 1071.47L1122.55 356.792C1157.62 316.789 1135.96 254.216 1083.57 244.162Z" stroke="#416935" stroke-width="0.3" stroke-miterlimit="10"/>
<path d="M1084.39 228.513L127.915 78.0273C75.2306 69.4931 32.8558 120.769 51.6544 170.316L396.722 1067.63C415.515 1117.18 481.374 1127.85 515.279 1086.83L1126.69 340.014C1160.59 298.987 1137.09 237.045 1084.39 228.513Z" stroke="#416935" stroke-width="0.3" stroke-miterlimit="10"/>
<path d="M1085.22 212.896L104.902 85.8199C51.9168 78.8 11.0129 131.334 31.2821 180.392L408.656 1086.43C428.924 1135.47 495.164 1144.25 527.875 1102.22L1130.81 323.26C1163.54 281.226 1138.21 219.916 1085.22 212.896Z" stroke="#416935" stroke-width="0.3" stroke-miterlimit="10"/>
<path d="M1082.03 194.312L77.8741 90.6497C24.5875 85.1439 -14.844 138.95 6.8921 187.492L416.583 1102.27C438.319 1150.81 504.933 1157.69 536.476 1114.65L1130.94 303.54C1162.5 260.489 1135.32 199.81 1082.03 194.312Z" stroke="#416935" stroke-width="0.3" stroke-miterlimit="10"/>
</g>
<defs>
<clipPath id="clip0_1763_9522">
<rect width="1153" height="1144" fill="white"/>
</clipPath>
</defs>
</svg>
