<svg width="26" height="26" viewBox="0 0 26 26" fill="none" xmlns="http://www.w3.org/2000/svg">
<path d="M8.12435 2.16669C4.83318 2.16669 2.16602 4.83385 2.16602 8.12502C2.16602 9.4586 2.60888 10.6842 3.3488 11.6776C3.2903 12.1109 3.24935 12.5504 3.24935 13C3.24935 18.3853 7.6141 22.75 12.9993 22.75C13.4489 22.75 13.8884 22.7091 14.3218 22.6506C15.3152 23.3905 16.5408 23.8334 17.8743 23.8334C21.1655 23.8334 23.8327 21.1662 23.8327 17.875C23.8327 16.5414 23.3898 15.3159 22.6499 14.3224C22.7084 13.8891 22.7493 13.4496 22.7493 13C22.7493 7.61477 18.3846 3.25002 12.9993 3.25002C12.5498 3.25002 12.1103 3.29097 11.6769 3.34947C10.6835 2.60955 9.45793 2.16669 8.12435 2.16669ZM8.12435 4.33335C8.9401 4.33335 9.7222 4.59369 10.3841 5.08661L11.0908 5.61558L11.9668 5.49709C12.372 5.44184 12.7003 5.41669 12.9993 5.41669C17.181 5.41669 20.5827 8.81835 20.5827 13C20.5827 13.299 20.5575 13.6263 20.5023 14.0326L20.3838 14.9085L20.9128 15.6153C21.4057 16.2772 21.666 17.0593 21.666 17.875C21.666 19.9659 19.9652 21.6667 17.8743 21.6667C17.0586 21.6667 16.2765 21.4063 15.6146 20.9134L14.9079 20.3845L14.0319 20.5029C13.6257 20.5571 13.2983 20.5834 12.9993 20.5834C8.81768 20.5834 5.41602 17.1817 5.41602 13C5.41602 12.701 5.44117 12.3737 5.49642 11.9675L5.61491 11.0915L5.08594 10.3848C4.59302 9.72287 4.33268 8.94077 4.33268 8.12502C4.33268 6.03419 6.03352 4.33335 8.12435 4.33335ZM12.8364 7.58335C8.76309 7.58335 8.46289 9.97633 8.46289 10.5668C8.46289 11.7411 9.13628 12.6532 10.2868 13.0952C11.5099 13.5654 12.9944 13.8473 13.8372 14.077C15.1557 14.4378 14.9883 15.1642 14.9883 15.2704C14.9883 16.3862 13.46 16.6736 12.8089 16.6118C12.0723 16.5425 11.3259 16.753 10.5492 15.154C10.4105 14.868 10.1556 14.242 9.38965 14.242C9.05815 14.242 8.23014 14.4943 8.23014 15.2852C8.23014 16.8365 9.96224 18.4167 12.9761 18.4167C14.5512 18.4167 17.4892 17.8714 17.4914 15.0461C17.4914 12.5858 15.0099 12.1541 13.1855 11.6839C12.6861 11.555 10.8242 11.3492 10.8242 10.3742C10.8242 10.085 11.2291 9.39032 12.6883 9.39032C14.1909 9.39032 14.5181 10.0938 14.7174 10.4588C14.8843 10.7481 15.0214 10.9715 15.1893 11.0788C15.8555 11.5045 16.4633 11.1782 16.6789 10.954C16.8945 10.7297 17.0026 10.4824 17.0026 10.2007C17.0026 8.97545 15.5534 7.58335 12.8364 7.58335Z" fill="#00574F"/>
</svg>
