<svg width="383" height="429" viewBox="0 0 383 429" fill="none" xmlns="http://www.w3.org/2000/svg">
<g clip-path="url(#clip0_2245_1982)">
<path d="M270.954 370.522L318.235 380.896C336.705 384.948 352.47 367.504 346.613 349.491L331.617 303.389C325.759 285.376 302.667 280.313 290.054 294.269L257.775 329.996C245.157 343.957 252.484 366.469 270.954 370.522Z" stroke="#CD7F74" stroke-width="0.3" stroke-miterlimit="10"/>
<path d="M265.687 376.916L326.452 386.454C345.301 389.977 360.726 371.781 354.217 353.703L331.656 296.325C325.142 278.246 301.58 273.846 289.239 288.4L251.035 336.246C238.694 350.795 246.832 373.392 265.687 376.916Z" stroke="#CD7F74" stroke-width="0.3" stroke-miterlimit="10"/>
<path d="M260.419 383.301L334.673 391.997C353.908 394.987 368.987 376.044 361.827 357.895L331.702 289.236C324.537 271.086 300.499 267.348 288.43 282.507L244.306 342.465C232.226 357.629 241.185 380.311 260.419 383.301Z" stroke="#CD7F74" stroke-width="0.3" stroke-miterlimit="10"/>
<path d="M255.145 389.688L342.884 397.548C362.497 400.009 377.242 380.314 369.42 362.099L331.731 282.164C323.914 263.95 299.396 260.873 287.604 276.632L237.555 348.707C225.764 364.461 235.537 387.227 255.145 389.688Z" stroke="#CD7F74" stroke-width="0.3" stroke-miterlimit="10"/>
<path d="M249.873 396.077L351.1 403.1C371.093 405.027 385.498 384.586 377.025 366.301L331.771 275.085C323.303 256.805 298.31 254.39 286.79 270.749L230.821 354.941C219.291 371.299 229.88 394.149 249.873 396.077Z" stroke="#CD7F74" stroke-width="0.3" stroke-miterlimit="10"/>
<path d="M244.607 402.464L359.319 408.646C379.691 410.045 393.756 388.852 384.631 370.5L331.814 268.004C322.689 249.652 297.225 247.906 285.972 264.863L224.078 361.173C212.83 378.131 224.235 401.066 244.607 402.464Z" stroke="#CD7F74" stroke-width="0.3" stroke-miterlimit="10"/>
<path d="M239.374 408.209L367.575 413.555C388.327 414.42 402.052 392.48 392.276 374.063L331.894 260.29C322.118 241.873 296.178 240.788 285.197 258.34L217.377 366.767C206.402 384.32 218.616 407.344 239.374 408.209Z" stroke="#CD7F74" stroke-width="0.3" stroke-miterlimit="10"/>
<path d="M239.957 410.674L370.073 412.01C391.136 412.225 404.35 389.54 393.854 371.171L329.032 257.71C318.535 239.341 292.209 239.072 281.638 257.226L216.344 369.351C205.778 387.5 218.895 410.459 239.957 410.674Z" stroke="#CD7F74" stroke-width="0.3" stroke-miterlimit="10"/>
<path d="M240.557 413.125L372.593 410.45C393.966 410.016 406.671 386.58 395.454 368.264L326.186 255.116C314.974 236.801 288.256 237.342 278.095 256.092L215.327 371.909C205.166 390.659 219.179 413.559 240.557 413.125Z" stroke="#CD7F74" stroke-width="0.3" stroke-miterlimit="10"/>
<path d="M241.144 415.588L375.095 408.903C396.778 407.819 408.972 383.639 397.04 365.371L323.332 252.54C311.4 234.273 284.295 235.63 274.539 254.975L214.296 374.491C204.546 393.837 219.461 416.672 241.144 415.588Z" stroke="#CD7F74" stroke-width="0.3" stroke-miterlimit="10"/>
<path d="M241.728 418.048L377.599 407.352C399.592 405.619 411.271 380.687 398.624 362.473L320.475 249.955C307.823 231.741 280.332 233.903 270.986 253.85L213.269 377.064C203.923 397.011 219.735 419.775 241.728 418.048Z" stroke="#CD7F74" stroke-width="0.3" stroke-miterlimit="10"/>
<path d="M242.314 420.509L380.1 405.802C402.404 403.42 413.573 377.743 400.205 359.577L317.616 247.372C304.248 229.211 276.365 232.183 267.43 252.726L212.233 379.632C203.297 400.181 220.006 422.886 242.314 420.509Z" stroke="#CD7F74" stroke-width="0.3" stroke-miterlimit="10"/>
<path d="M242.905 422.97L382.611 404.253C405.225 401.222 415.884 374.794 401.796 356.681L314.761 244.794C300.673 226.68 272.403 230.468 263.878 251.608L211.207 382.212C202.681 403.358 220.292 425.997 242.905 422.97Z" stroke="#CD7F74" stroke-width="0.3" stroke-miterlimit="10"/>
<path d="M244.361 425.011L385.374 401.581C408.202 397.788 418.163 370.643 403.306 352.724L311.526 242.028C296.668 224.109 268.133 228.847 260.163 250.564L210.93 384.695C202.965 406.402 221.533 428.803 244.361 425.011Z" stroke="#CD7F74" stroke-width="0.3" stroke-miterlimit="10"/>
<path d="M245.805 427.068L388.125 398.92C411.167 394.361 420.431 366.509 404.809 348.779L308.285 239.275C292.658 221.545 263.858 227.243 256.443 249.527L210.641 387.185C203.232 409.463 222.763 431.622 245.805 427.068Z" stroke="#CD7F74" stroke-width="0.3" stroke-miterlimit="10"/>
<path d="M247.247 429.121L390.88 396.254C414.131 390.934 422.702 362.365 406.311 344.83L305.037 236.511C288.641 218.975 259.581 225.629 252.721 248.484L210.357 389.664C203.502 412.52 223.996 434.441 247.247 429.121Z" stroke="#CD7F74" stroke-width="0.3" stroke-miterlimit="10"/>
<path d="M248.697 431.168L393.636 393.583C417.102 387.497 424.975 358.216 407.815 340.875L301.801 233.747C284.641 216.406 255.311 224.01 249.006 247.437L210.08 392.144C203.78 415.571 225.232 437.249 248.697 431.168Z" stroke="#CD7F74" stroke-width="0.3" stroke-miterlimit="10"/>
<path d="M250.149 433.214L396.396 390.915C420.07 384.068 427.251 354.069 409.321 336.922L298.568 230.981C280.638 213.834 251.043 222.393 245.299 246.387L209.811 394.621C204.06 418.626 226.475 440.061 250.149 433.214Z" stroke="#CD7F74" stroke-width="0.3" stroke-miterlimit="10"/>
<path d="M251.584 435.272L399.144 388.256C423.032 380.642 429.515 349.936 410.821 332.978L295.317 228.234C276.619 211.276 246.758 220.79 241.569 245.361L209.513 397.122C204.324 421.688 227.701 442.886 251.584 435.272Z" stroke="#CD7F74" stroke-width="0.3" stroke-miterlimit="10"/>
<path d="M254.048 437.38L402.123 384.997C426.092 376.515 431.693 345.166 412.202 328.567L291.792 226.022C272.301 209.422 242.335 220.023 237.857 245.105L210.191 400.038C205.708 425.109 230.074 445.857 254.048 437.38Z" stroke="#CD7F74" stroke-width="0.3" stroke-miterlimit="10"/>
<path d="M256.522 439.483L405.109 381.727C429.164 372.376 433.872 340.385 413.589 324.139L288.278 223.794C267.989 207.547 237.922 219.233 234.156 244.831L210.88 402.931C207.109 428.524 232.468 448.828 256.522 439.483Z" stroke="#CD7F74" stroke-width="0.3" stroke-miterlimit="10"/>
<path d="M258.981 441.594L408.084 378.472C432.225 368.252 436.046 335.619 414.965 319.73L284.743 221.58C263.661 205.691 233.489 218.463 230.435 244.572L211.549 405.844C208.495 431.948 234.841 451.808 258.981 441.594Z" stroke="#CD7F74" stroke-width="0.3" stroke-miterlimit="10"/>
<path d="M261.441 443.706L411.06 375.217C435.281 364.128 438.215 330.852 416.342 315.322L281.213 219.372C259.34 203.841 229.061 217.7 226.714 244.319L212.218 408.758C209.876 435.377 237.22 454.795 261.441 443.706Z" stroke="#CD7F74" stroke-width="0.3" stroke-miterlimit="10"/>
<path d="M263.912 445.808L414.047 371.952C438.354 359.995 440.395 326.082 417.729 310.904L277.694 217.154C255.023 201.976 224.644 216.921 223.008 244.056L212.902 411.667C211.273 438.792 239.61 457.766 263.912 445.808Z" stroke="#CD7F74" stroke-width="0.3" stroke-miterlimit="10"/>
<path d="M267.217 447.963L417.868 368.735C442.255 355.909 443.414 321.354 419.951 306.534L275.01 214.985C251.547 200.165 221.062 216.196 220.138 243.842L214.423 414.618C213.499 442.259 242.825 460.789 267.217 447.963Z" stroke="#CD7F74" stroke-width="0.3" stroke-miterlimit="10"/>
<path d="M270.946 450.215L421.481 364.797C445.715 351.073 445.807 316.112 421.643 301.869L271.406 213.475C247.242 199.231 216.953 216.385 216.878 244.351L216.58 418.164C216.509 446.136 246.712 463.939 270.946 450.215Z" stroke="#CD7F74" stroke-width="0.3" stroke-miterlimit="10"/>
<path d="M274.691 452.464L425.105 360.854C449.186 346.234 448.21 310.872 423.351 297.2L267.818 211.956C242.959 198.289 212.856 216.564 213.639 244.852L218.758 421.705C219.535 449.998 250.609 467.085 274.691 452.464Z" stroke="#CD7F74" stroke-width="0.3" stroke-miterlimit="10"/>
<path d="M278.443 454.707L428.742 356.901C452.67 341.384 450.627 305.616 425.067 292.525L264.232 210.436C238.673 197.345 208.766 216.743 210.397 245.356L220.933 425.246C222.564 453.859 254.515 470.224 278.443 454.707Z" stroke="#CD7F74" stroke-width="0.3" stroke-miterlimit="10"/>
<path d="M282.164 456.964L432.342 352.967C456.113 336.547 453.006 300.384 426.751 287.864L260.62 208.93C234.36 196.415 204.644 216.936 207.134 245.87L223.087 428.801C225.571 457.735 258.393 473.384 282.164 456.964Z" stroke="#CD7F74" stroke-width="0.3" stroke-miterlimit="10"/>
<path d="M285.902 459.218L435.964 349.024C459.582 331.708 455.408 295.138 428.453 283.2L257.02 207.421C230.065 195.483 200.54 217.125 203.877 246.38L225.247 432.347C228.59 461.608 262.284 476.529 285.902 459.218Z" stroke="#CD7F74" stroke-width="0.3" stroke-miterlimit="10"/>
<path d="M289.639 461.464L439.581 345.079C463.047 326.866 457.804 289.895 430.149 278.527L253.42 205.904C225.764 194.542 196.435 217.307 200.626 246.882L227.407 435.89C231.603 465.471 266.174 479.677 289.639 461.464Z" stroke="#CD7F74" stroke-width="0.3" stroke-miterlimit="10"/>
<path d="M294.246 464.37L444.021 339.912C466.891 321.062 460.601 284.325 432.692 273.791L249.061 205.293C221.152 194.754 192.565 218.318 197.599 247.708L231.455 440.663C236.489 470.047 271.37 483.22 294.246 464.37Z" stroke="#CD7F74" stroke-width="0.3" stroke-miterlimit="10"/>
<path d="M298.852 467.269L448.46 334.734C470.741 315.246 463.393 278.747 435.235 269.036L244.702 204.665C216.544 194.954 188.689 219.317 194.572 248.516L235.496 445.423C241.369 474.621 276.566 486.756 298.852 467.269Z" stroke="#CD7F74" stroke-width="0.3" stroke-miterlimit="10"/>
<path d="M303.45 470.173L452.891 329.56C474.582 309.435 466.176 273.175 437.769 264.292L240.335 204.047C211.923 195.164 184.81 220.321 191.531 249.329L239.524 450.187C246.251 479.195 281.764 490.298 303.45 470.173Z" stroke="#CD7F74" stroke-width="0.3" stroke-miterlimit="10"/>
<path d="M308.048 473.087L457.323 324.396C478.419 303.634 468.965 267.608 440.299 259.552L235.963 203.434C207.302 195.379 180.927 221.335 188.491 250.152L243.553 454.961C251.123 483.778 286.952 493.849 308.048 473.087Z" stroke="#CD7F74" stroke-width="0.3" stroke-miterlimit="10"/>
<path d="M312.653 475.989L461.761 319.227C482.267 297.827 471.755 262.039 442.841 254.812L231.597 202.814C202.683 195.587 177.05 222.337 185.458 250.969L247.588 459.729C256.006 488.356 292.147 497.388 312.653 475.989Z" stroke="#CD7F74" stroke-width="0.3" stroke-miterlimit="10"/>
<path d="M317.247 478.895L466.188 314.055C486.1 292.013 474.535 256.464 445.372 250.065L227.227 202.192C198.059 195.793 173.168 223.343 182.419 251.784L251.617 464.496C260.874 492.937 297.335 500.937 317.247 478.895Z" stroke="#CD7F74" stroke-width="0.3" stroke-miterlimit="10"/>
<path d="M322.71 481.977L469.619 308.171C488.841 285.604 476.279 250.472 447.01 244.93L222.14 203.242C192.871 197.7 168.841 225.906 178.893 254.015L256.854 469.51C266.902 497.613 303.489 504.539 322.71 481.977Z" stroke="#CD7F74" stroke-width="0.3" stroke-miterlimit="10"/>
<path d="M328.178 485.064L473.054 302.292C491.585 279.199 478.026 244.484 448.651 239.805L217.057 204.301C187.682 199.622 164.522 228.484 175.366 256.256L262.084 474.532C272.928 502.304 309.646 508.156 328.178 485.064Z" stroke="#CD7F74" stroke-width="0.3" stroke-miterlimit="10"/>
<path d="M333.641 488.136L476.484 296.397C494.32 272.78 479.77 238.482 450.289 234.66L211.965 205.334C182.489 201.512 160.189 231.037 171.834 258.477L267.315 479.54C278.955 506.975 315.805 511.753 333.641 488.136Z" stroke="#CD7F74" stroke-width="0.3" stroke-miterlimit="10"/>
<path d="M339.115 491.212L479.926 290.507C497.072 266.364 481.525 232.484 451.938 229.518L206.889 206.377C177.307 203.417 155.878 233.593 168.314 260.701L272.552 484.547C284.993 511.655 321.97 515.354 339.115 491.212Z" stroke="#CD7F74" stroke-width="0.3" stroke-miterlimit="10"/>
<path d="M344.581 494.293L483.36 284.623C499.81 259.955 483.267 226.487 453.584 224.389L201.811 207.426C172.123 205.323 151.559 236.161 164.797 262.932L277.791 489.56C291.024 516.336 328.132 518.961 344.581 494.293Z" stroke="#CD7F74" stroke-width="0.3" stroke-miterlimit="10"/>
<path d="M349.992 498.663L486.74 280.031C502.5 254.833 484.959 221.787 455.17 220.546L196.666 209.767C166.876 208.526 147.178 240.02 161.207 266.46L282.964 495.871C296.993 522.306 334.232 523.857 349.992 498.663Z" stroke="#CD7F74" stroke-width="0.3" stroke-miterlimit="10"/>
<path d="M356.247 502.239L488.738 274.086C503.723 248.49 485.279 216.025 455.531 215.649L190.948 213.253C161.205 212.877 142.469 244.869 157.227 270.841L289.319 501.395C304.082 527.362 341.262 527.835 356.247 502.239Z" stroke="#CD7F74" stroke-width="0.3" stroke-miterlimit="10"/>
<path d="M362.527 505.805L490.762 268.13C504.976 242.137 485.624 210.254 455.924 210.742L185.261 216.725C155.561 217.213 137.792 249.708 153.277 275.212L295.706 506.904C311.191 532.408 348.312 531.797 362.527 505.805Z" stroke="#CD7F74" stroke-width="0.3" stroke-miterlimit="10"/>
<path d="M368.793 509.377L492.771 262.181C506.216 235.787 485.955 204.489 456.302 205.847L179.559 220.214C149.906 221.567 133.105 254.559 149.313 279.601L302.072 512.43C318.286 537.466 355.348 535.772 368.793 509.377Z" stroke="#CD7F74" stroke-width="0.3" stroke-miterlimit="10"/>
<path d="M375.065 512.945L494.786 256.228C507.456 229.436 486.292 198.72 456.686 200.943L173.863 223.694C144.258 225.917 128.419 259.406 145.355 283.975L308.451 517.946C325.387 542.514 362.395 539.737 375.065 512.945Z" stroke="#CD7F74" stroke-width="0.3" stroke-miterlimit="10"/>
<path d="M381.333 516.513L496.803 250.274C508.703 223.081 486.625 192.956 457.067 196.038L168.164 227.168C138.606 230.256 123.73 264.243 141.393 288.348L314.826 523.458C332.484 547.563 369.433 543.702 381.333 516.513Z" stroke="#CD7F74" stroke-width="0.3" stroke-miterlimit="10"/>
<path d="M387.582 520.102L498.795 244.341C509.92 216.751 486.938 187.207 457.427 191.16L162.445 230.669C132.934 234.622 119.026 269.111 137.412 292.748L321.181 528.995C339.562 552.632 376.452 547.692 387.582 520.102Z" stroke="#CD7F74" stroke-width="0.3" stroke-miterlimit="10"/>
<path d="M394.562 523.797L498.98 238.404C509.281 210.553 485.506 181.745 456.187 186.543L156.319 236.697C127 241.496 114.13 276.31 133.149 299.358L328.598 534.603C347.617 557.65 384.266 551.649 394.562 523.797Z" stroke="#CD7F74" stroke-width="0.3" stroke-miterlimit="10"/>
<path d="M401.542 527.494L499.166 232.468C508.637 204.36 484.07 176.278 454.947 181.928L150.189 242.715C121.066 248.36 109.231 283.495 128.882 305.963L336.017 540.201C355.673 562.658 392.076 555.601 401.542 527.494Z" stroke="#CD7F74" stroke-width="0.3" stroke-miterlimit="10"/>
<path d="M408.524 531.195L499.358 226.537C508 198.168 482.645 170.822 453.72 177.312L144.07 248.74C115.145 255.23 104.344 290.69 124.626 312.568L343.442 545.804C363.725 567.677 399.882 559.564 408.524 531.195Z" stroke="#CD7F74" stroke-width="0.3" stroke-miterlimit="10"/>
<path d="M415.506 534.886L499.545 220.59C507.358 191.966 481.21 165.35 452.482 172.686L137.942 254.748C109.214 262.085 99.4459 297.87 120.361 319.158L350.858 551.387C371.783 572.686 407.693 563.516 415.506 534.886Z" stroke="#CD7F74" stroke-width="0.3" stroke-miterlimit="10"/>
<path d="M422.489 538.584L499.732 214.655C506.716 185.769 479.78 159.89 451.244 168.072L131.818 260.774C103.282 268.957 94.5532 305.067 116.1 325.771L358.283 556.997C379.841 577.701 415.505 567.47 422.489 538.584Z" stroke="#CD7F74" stroke-width="0.3" stroke-miterlimit="10"/>
<path d="M429.47 542.288L499.924 208.727C506.078 179.58 478.35 154.436 450.011 163.465L125.693 266.807C97.3543 275.836 89.6598 312.271 111.845 332.385L365.709 562.604C387.888 582.722 423.316 571.436 429.47 542.288Z" stroke="#CD7F74" stroke-width="0.3" stroke-miterlimit="10"/>
<path d="M436.987 544.667L497.864 201.904C503.162 172.648 474.784 148.36 446.782 158.193L119.362 274.366C91.3652 284.195 84.7447 320.767 107.444 340.194L373.987 566.779C396.691 586.212 431.689 573.923 436.987 544.667Z" stroke="#CD7F74" stroke-width="0.3" stroke-miterlimit="10"/>
<path d="M444.524 547.049L495.826 195.083C500.261 165.713 471.234 142.291 443.575 152.92L113.045 281.933C85.3855 292.562 79.8389 329.275 103.063 348.016L382.291 570.968C405.51 589.703 440.083 576.419 444.524 547.049Z" stroke="#CD7F74" stroke-width="0.3" stroke-miterlimit="10"/>
<path d="M452.04 549.427L493.772 188.259C497.35 158.781 467.668 136.213 440.346 147.648L106.707 289.498C79.3855 300.927 74.918 337.781 98.6616 355.83L390.569 575.148C414.313 593.198 448.462 578.911 452.04 549.427Z" stroke="#CD7F74" stroke-width="0.3" stroke-miterlimit="10"/>
<path d="M459.567 551.809L491.722 181.438C494.438 151.846 464.111 130.145 437.127 142.374L100.385 297.06C73.4059 309.29 70.0071 346.284 94.2704 363.642L398.858 579.326C423.121 596.695 456.846 581.401 459.567 551.809Z" stroke="#CD7F74" stroke-width="0.3" stroke-miterlimit="10"/>
<path d="M467.095 554.188L489.674 174.615C491.533 144.908 460.552 124.068 433.91 137.103L94.0586 304.625C67.4172 317.655 65.0925 354.785 89.8805 371.462L407.148 583.512C431.936 600.184 465.236 583.894 467.095 554.188Z" stroke="#CD7F74" stroke-width="0.3" stroke-miterlimit="10"/>
<path d="M472.682 556.472L485.69 167.699C486.686 137.884 455.056 117.904 428.752 131.734L85.7994 312.092C59.4956 325.922 58.2502 363.193 83.5524 379.178L413.503 587.593C438.81 603.578 471.686 586.287 472.682 556.472Z" stroke="#CD7F74" stroke-width="0.3" stroke-miterlimit="10"/>
<path d="M479.809 557.019L480.315 160.119C480.448 130.345 448.329 111.325 422.499 125.887L78.8527 321.087C53.0229 335.649 52.8597 372.869 78.5515 388.086L421.692 589.786C447.389 604.998 479.676 586.793 479.809 557.019Z" stroke="#CD7F74" stroke-width="0.3" stroke-miterlimit="10"/>
<path d="M486.927 557.57L474.932 152.543C474.201 122.805 441.589 104.75 416.233 120.044L71.8924 330.086C46.5365 345.38 47.4502 382.549 73.5423 396.994L429.878 591.979C455.964 606.423 487.663 587.303 486.927 557.57Z" stroke="#CD7F74" stroke-width="0.3" stroke-miterlimit="10"/>
<path d="M494.034 558.129L469.538 144.981C467.943 115.284 434.842 98.1936 409.955 114.215L64.9263 339.098C40.0445 355.12 42.0403 392.243 68.5221 405.914L438.053 594.18C464.529 607.856 495.634 587.827 494.034 558.129Z" stroke="#CD7F74" stroke-width="0.3" stroke-miterlimit="10"/>
<path d="M501.151 558.686L464.149 137.41C461.685 107.753 428.096 91.6231 403.688 108.377L57.9648 348.107C33.5569 364.861 36.6298 401.928 63.5062 414.836L446.227 596.382C473.104 609.28 503.615 588.343 501.151 558.686Z" stroke="#CD7F74" stroke-width="0.3" stroke-miterlimit="10"/>
<path d="M508.284 559.234L458.781 129.832C455.454 100.216 421.377 85.0455 397.437 102.532L51.0247 357.102C27.0856 374.583 31.2457 411.605 58.512 423.74L454.427 598.572C481.688 610.702 511.611 588.851 508.284 559.234Z" stroke="#CD7F74" stroke-width="0.3" stroke-miterlimit="10"/>
<path d="M515.396 559.791L453.393 122.262C449.203 92.6867 414.631 78.481 391.166 96.694L44.0589 366.111C20.5936 384.324 25.8359 421.295 53.4917 432.663L462.602 600.775C490.258 612.132 519.587 589.367 515.396 559.791Z" stroke="#CD7F74" stroke-width="0.3" stroke-miterlimit="10"/>
<path d="M522.075 558.049L444.621 114.179C439.587 84.7894 404.7 71.6215 381.83 90.4719L37.0736 376.409C14.2033 395.259 20.4931 431.996 48.4029 442.531L470.613 600.463C498.517 611.003 527.109 587.439 522.075 558.049Z" stroke="#CD7F74" stroke-width="0.3" stroke-miterlimit="10"/>
<path d="M528.743 556.323L435.835 106.113C429.957 76.9137 394.76 64.7786 372.474 84.2659L30.0681 386.727C7.78757 406.215 15.1357 442.714 43.2937 452.425L478.608 600.174C506.772 609.88 534.621 585.522 528.743 556.323Z" stroke="#CD7F74" stroke-width="0.3" stroke-miterlimit="10"/>
<path d="M535.441 554.573L427.083 98.0216C420.362 69.0137 384.848 57.9111 363.157 78.0357L23.1024 397.017C1.41149 417.141 9.81796 453.401 38.2244 462.284L486.638 599.854C515.05 608.738 542.162 583.581 535.441 554.573Z" stroke="#CD7F74" stroke-width="0.3" stroke-miterlimit="10"/>
<path d="M542.109 552.842L418.296 89.9501C410.731 61.1331 374.902 51.0629 353.806 71.8249L16.1014 407.325C-4.99449 428.087 4.45942 464.113 33.125 472.169L494.643 599.555C523.303 607.616 549.678 581.659 542.109 552.842Z" stroke="#CD7F74" stroke-width="0.3" stroke-miterlimit="10"/>
<path d="M548.785 551.109L409.523 81.8766C401.116 53.2452 364.97 44.2128 344.464 65.6119L9.10937 417.636C-11.3969 439.035 -0.884705 474.823 28.0294 482.05L502.646 599.259C531.56 606.491 557.193 579.741 548.785 551.109Z" stroke="#CD7F74" stroke-width="0.3" stroke-miterlimit="10"/>
<path d="M555.48 549.364L400.764 73.7963C391.513 45.3558 355.052 37.3558 335.14 59.3976L2.13552 427.94C-17.776 449.982 -6.21091 485.532 22.9516 491.93L510.673 598.955C539.841 605.354 564.731 577.805 555.48 549.364Z" stroke="#CD7F74" stroke-width="0.3" stroke-miterlimit="10"/>
<path d="M562.986 544.884L389.987 65.5392C379.939 37.4358 343.352 30.51 324.131 53.0716L-2.86684 439.327C-22.0881 461.894 -9.52618 497.026 19.7424 502.568L519.74 595.657C549.009 601.199 573.034 572.987 562.986 544.884Z" stroke="#CD7F74" stroke-width="0.3" stroke-miterlimit="10"/>
<path d="M570.476 540.42L379.193 57.3041C368.35 29.5325 331.631 23.6805 313.1 46.7725L-7.89071 450.735C-26.4217 473.827 -12.863 508.542 16.5118 513.221L528.786 592.375C558.16 597.06 581.325 568.192 570.476 540.42Z" stroke="#CD7F74" stroke-width="0.3" stroke-miterlimit="10"/>
<path d="M577.981 535.95L368.415 49.0624C356.775 21.6226 319.925 16.8497 302.089 40.4672L-12.8952 462.136C-30.7307 485.754 -16.1805 520.051 13.3004 523.873L537.851 589.092C567.326 592.914 589.621 563.39 577.981 535.95Z" stroke="#CD7F74" stroke-width="0.3" stroke-miterlimit="10"/>
<path d="M585.496 531.459L357.648 40.8005C345.212 13.6978 308.231 9.99334 291.091 34.1362L-17.8876 473.517C-35.0328 497.659 -19.4859 531.539 10.101 534.505L546.922 585.788C576.509 588.748 597.938 558.567 585.496 531.459Z" stroke="#CD7F74" stroke-width="0.3" stroke-miterlimit="10"/>
<path d="M593.002 526.984L346.872 32.549C333.639 5.77796 296.532 3.14759 280.076 27.8206L-22.8957 484.908C-39.3454 509.576 -22.802 543.043 6.88084 545.141L555.978 582.484C585.671 584.593 606.235 553.755 593.002 526.984Z" stroke="#CD7F74" stroke-width="0.3" stroke-miterlimit="10"/>
<path d="M600.633 519.721L336.219 21.511C322.19 -4.92848 284.951 -6.47979 269.191 18.7135L-27.7775 493.515C-43.5372 518.708 -25.9969 551.759 3.79221 553L565.169 576.409C594.969 577.656 614.667 546.161 600.633 519.721Z" stroke="#CD7F74" stroke-width="0.3" stroke-miterlimit="10"/>
</g>
<defs>
<clipPath id="clip0_2245_1982">
<rect width="383" height="429" fill="white"/>
</clipPath>
</defs>
</svg>
