<svg width="26" height="26" viewBox="0 0 26 26" fill="none" xmlns="http://www.w3.org/2000/svg">
<path d="M22.1391 3.0917C21.8465 3.10461 21.5739 3.18982 21.334 3.28682C21.1092 3.37723 20.2504 3.74558 18.8977 4.32568C17.5437 4.90629 15.751 5.67596 13.8387 6.49834C10.014 8.14309 5.71398 9.99451 3.51152 10.9421C3.4287 10.9777 3.13972 11.07 2.83301 11.3095C2.52629 11.5489 2.2002 12.0451 2.2002 12.5979C2.2002 13.0438 2.41266 13.4866 2.68008 13.7511C2.9475 14.0155 3.23047 14.1461 3.47285 14.245C4.3523 14.6039 7.07986 15.72 7.59492 15.9308C7.77619 16.486 8.76344 19.506 8.99238 20.2462C9.14331 20.7346 9.28697 21.0405 9.47402 21.2833C9.56755 21.4047 9.67626 21.5111 9.80801 21.5944C9.86067 21.6278 9.91841 21.6534 9.97676 21.6771L9.98027 21.6788C9.99372 21.6842 10.0053 21.6934 10.0189 21.6981C10.0447 21.7071 10.0619 21.7082 10.0963 21.7157C10.2334 21.76 10.3718 21.7878 10.4953 21.7878C11.022 21.7878 11.3443 21.4978 11.3443 21.4978L11.3637 21.4837L14.0725 19.1405L17.3578 22.2483C17.4041 22.3137 17.8355 22.9058 18.7869 22.9058C19.3518 22.9058 19.8 22.6223 20.0877 22.3204C20.3754 22.0185 20.5547 21.7014 20.6309 21.3026V21.3009C20.7021 20.9241 23.7299 5.38037 23.7299 5.38037L23.7246 5.40146C23.8132 4.9969 23.8365 4.62014 23.7387 4.24834C23.6409 3.87654 23.3832 3.52056 23.0637 3.329C22.7442 3.13749 22.4316 3.07879 22.1391 3.0917ZM21.9703 4.97256C21.966 4.99882 21.9735 4.98562 21.9668 5.0165L21.965 5.02705L21.9633 5.0376C21.9633 5.0376 18.973 20.3825 18.8625 20.9669C18.8706 20.9228 18.8336 21.0105 18.7957 21.0636C18.7421 21.0266 18.6322 20.9792 18.6322 20.9792L18.6146 20.9599L14.127 16.7147L10.9541 19.4569L11.898 15.6776C11.898 15.6776 17.7986 9.56966 18.1541 9.21416C18.4403 8.92976 18.5004 8.83062 18.5004 8.73252C18.5004 8.60112 18.4319 8.50576 18.2789 8.50576C18.1412 8.50576 17.956 8.63964 17.857 8.70264C16.5672 9.52483 10.9048 12.825 8.3666 14.3013C7.96323 14.1362 5.16089 12.9891 4.21113 12.6015C4.21832 12.5983 4.21596 12.5994 4.22344 12.5962C6.42648 11.6484 10.7247 9.79696 14.5488 8.15244C16.4609 7.33018 18.255 6.55992 19.6078 5.97978C20.9398 5.40858 21.8653 5.01546 21.9703 4.97256Z" fill="#00574F"/>
</svg>
