<svg width="26" height="26" viewBox="0 0 26 26" fill="none" xmlns="http://www.w3.org/2000/svg">
<path d="M13.0132 1.75C6.81893 1.75 1.77642 6.78817 1.77417 12.9824C1.77304 14.9624 2.29165 16.8954 3.2749 18.5986L1.75 24.25L7.63647 22.8591C9.27785 23.7546 11.1256 24.2247 13.0066 24.2258H13.011C19.2041 24.2258 24.2444 19.1865 24.2478 12.9934C24.2501 9.99078 23.0824 7.1677 20.9607 5.0437C18.8389 2.92083 16.0192 1.75113 13.0132 1.75ZM13.011 4C15.414 4.00113 17.6722 4.93802 19.3699 6.63452C21.0675 8.33327 22.0001 10.5905 21.9978 12.9912C21.9956 17.9457 17.9655 21.9758 13.0088 21.9758C11.5092 21.9747 10.0237 21.5982 8.71533 20.8838L7.95728 20.4707L7.12012 20.6685L4.90527 21.1914L5.4458 19.1831L5.6897 18.2822L5.22388 17.4736C4.43863 16.1146 4.02304 14.5608 4.02417 12.9824C4.02642 8.03017 8.05761 4 13.011 4ZM9.03613 7.79688C8.84826 7.79688 8.54449 7.86719 8.28687 8.14844C8.02924 8.42856 7.30249 9.10703 7.30249 10.4885C7.30249 11.87 8.30884 13.2054 8.44946 13.3933C8.58896 13.5801 10.392 16.5046 13.2461 17.6296C15.6176 18.5645 16.0993 18.38 16.6145 18.3328C17.1298 18.2866 18.2767 17.6549 18.5107 16.999C18.7447 16.3432 18.7453 15.779 18.6755 15.6631C18.6058 15.5461 18.4185 15.4763 18.1372 15.3357C17.8571 15.1951 16.4766 14.5172 16.219 14.4238C15.9614 14.3305 15.7729 14.2832 15.5862 14.5645C15.3994 14.8457 14.8627 15.4763 14.6985 15.6631C14.5342 15.851 14.3711 15.8762 14.0898 15.7356C13.8086 15.5938 12.9043 15.2966 11.8311 14.3403C10.9963 13.5967 10.433 12.6792 10.2688 12.398C10.1057 12.1178 10.2534 11.964 10.394 11.8245C10.52 11.6985 10.6731 11.4965 10.8137 11.3323C10.9532 11.168 11.0016 11.051 11.095 10.8643C11.1883 10.6775 11.1406 10.5127 11.0708 10.3721C11.0011 10.2314 10.4548 8.84481 10.2051 8.28906C9.9947 7.82219 9.77252 7.81134 9.57227 7.80347C9.40914 7.79672 9.22288 7.79688 9.03613 7.79688Z" fill="#002E25"/>
</svg>
